<svg xmlns="http://www.w3.org/2000/svg" xmlns:xlink="http://www.w3.org/1999/xlink" fill="none" version="1.1" width="38.04296875" height="38.04345703125" viewBox="0 0 38.04296875 38.04345703125"><g><g><ellipse cx="19.021739959716797" cy="19.021739959716797" rx="18.1159428358078" ry="18.1159428358078" fill-opacity="0" stroke-opacity="1" stroke="#474747" fill="none" stroke-width="1.8115942478179932"/></g><g><g><path d="" fill="#474747" fill-opacity="1"/><path d="M12.68359375,19.927281375L25.36479375,19.927281375L25.36479375,19.926484375Q25.45389375,19.926484375,25.54129375,19.909095375Q25.62869375,19.891705375,25.71109375,19.857595375Q25.79339375,19.823484375,25.86749375,19.773964375Q25.94169375,19.724443375,26.00469375,19.661416375Q26.06769375,19.598388375,26.11719375,19.524275375Q26.16679375,19.450162375,26.20089375,19.367812375Q26.23499375,19.285463375,26.25239375,19.198041375Q26.269793749999998,19.110619075,26.269793749999998,19.021484375Q26.269793749999998,18.932349675,26.25239375,18.844927375Q26.23499375,18.757505375,26.20089375,18.675156375Q26.16679375,18.592806375,26.11719375,18.518693375Q26.06769375,18.444580375,26.00469375,18.381552375Q25.94169375,18.318525375,25.86749375,18.269004375Q25.79339375,18.219484375,25.71109375,18.185373375Q25.62869375,18.151263375,25.54129375,18.133873375Q25.45389375,18.116484375,25.36479375,18.116484375L25.36479375,18.115687375L12.68359375,18.115687375L12.68359375,18.116484375Q12.59445905,18.116484375,12.50703675,18.133873375Q12.41961475,18.151263375,12.33726575,18.185373375Q12.25491575,18.219484375,12.18080275,18.269004375Q12.10668975,18.318525375,12.04366175,18.381552375Q11.98063475,18.444580375,11.93111375,18.518693375Q11.88159375,18.592806375,11.84748275,18.675156375Q11.81337275,18.757505375,11.79598275,18.844927375Q11.77859375,18.932349675,11.77859375,19.021484375Q11.77859375,19.110619075,11.79598275,19.198041375Q11.81337275,19.285463375,11.84748275,19.367812375Q11.88159375,19.450162375,11.93111375,19.524275375Q11.98063475,19.598388375,12.04366175,19.661416375Q12.10668975,19.724443375,12.18080275,19.773964375Q12.25491575,19.823484375,12.33726575,19.857595375Q12.41961475,19.891705375,12.50703675,19.909095375Q12.59445905,19.926484375,12.68359375,19.926484375L12.68359375,19.927281375Z" fill-rule="evenodd" fill="#DBF378" fill-opacity="1"/></g><g transform="matrix(0,1,1,0,6.34228515625,-6.34228515625)"><path d="" fill="#474747" fill-opacity="1"/><path d="M19.0234375,13.58694934375L31.7046375,13.58694934375L31.7046375,13.58615234375Q31.7937375,13.58615234375,31.8811375,13.56876334375Q31.9685375,13.55137334375,32.0509375,13.51726334375Q32.1332375,13.48315234375,32.2073375,13.43363234375Q32.2815375,13.38411134375,32.3445375,13.32108434375Q32.407537500000004,13.25805634375,32.4570375,13.18394334375Q32.5066375,13.10983034375,32.5407375,13.02748034375Q32.5748375,12.94513134375,32.592237499999996,12.85770934375Q32.6096375,12.77028704375,32.6096375,12.68115234375Q32.6096375,12.59201764375,32.592237499999996,12.50459534375Q32.5748375,12.41717334375,32.5407375,12.33482434375Q32.5066375,12.25247434375,32.4570375,12.17836134375Q32.407537500000004,12.10424834375,32.3445375,12.04122034375Q32.2815375,11.97819334375,32.2073375,11.92867234375Q32.1332375,11.87915234375,32.0509375,11.84504134375Q31.9685375,11.81093134375,31.8811375,11.79354134375Q31.7937375,11.77615234375,31.7046375,11.77615234375L31.7046375,11.77535534375L19.0234375,11.77535534375L19.0234375,11.77615234375Q18.9343028,11.77615234375,18.8468805,11.79354134375Q18.7594585,11.81093134375,18.6771095,11.84504134375Q18.5947595,11.87915234375,18.5206465,11.92867234375Q18.4465335,11.97819334375,18.3835055,12.04122034375Q18.3204785,12.10424834375,18.2709575,12.17836134375Q18.2214375,12.25247434375,18.1873265,12.33482434375Q18.1532165,12.41717334375,18.1358265,12.50459534375Q18.1184375,12.59201764375,18.1184375,12.68115234375Q18.1184375,12.77028704375,18.1358265,12.85770934375Q18.1532165,12.94513134375,18.1873265,13.02748034375Q18.2214375,13.10983034375,18.2709575,13.18394334375Q18.3204785,13.25805634375,18.3835055,13.32108434375Q18.4465335,13.38411134375,18.5206465,13.43363234375Q18.5947595,13.48315234375,18.6771095,13.51726334375Q18.7594585,13.55137334375,18.8468805,13.56876334375Q18.9343028,13.58615234375,19.0234375,13.58615234375L19.0234375,13.58694934375Z" fill-rule="evenodd" fill="#DBF378" fill-opacity="1"/></g></g></g></svg>