<svg xmlns="http://www.w3.org/2000/svg" xmlns:xlink="http://www.w3.org/1999/xlink" fill="none" version="1.1" width="21.794921875" height="21.795166015625" viewBox="0 0 21.794921875 21.795166015625"><g><g style="opacity:0;"><g><rect x="0.06689453125" y="0.06707763671875" width="21.659847259521484" height="21.659847259521484" rx="0" fill-opacity="0" stroke-opacity="1" stroke="#FFFFFF" fill="none" stroke-width="0.07925745844841003"/></g><g><path d="M0.02783203125,10.858076378125L21.76693203125,10.858076378125L21.76693203125,10.937333778125L0.02783203125,10.937333778125L0.02783203125,10.858076378125Z" fill-rule="evenodd" fill="#FFFFFF" fill-opacity="1"/></g><g><path d="M10.9370896375,0.02801513671875L10.9370896375,21.76711513671875L10.8578322375,21.76711513671875L10.8578322375,0.02801513671875L10.9370896375,0.02801513671875Z" fill-rule="evenodd" fill="#FFFFFF" fill-opacity="1"/></g><g><path d="M21.79493203125,0.05603683671875L0.05585373125,21.79511513671875L-0.00018966875000000008,21.73911513671875L21.73893203125,-0.00000656328125000008L21.79493203125,0.05603683671875Z" fill-rule="evenodd" fill="#FFFFFF" fill-opacity="1"/></g><g><path d="M21.73893203125,21.79511513671875L-0.00018966875000000008,0.05603683671875L0.05585373125,-0.00000656328125000008L21.79503203125,21.73911513671875L21.73893203125,21.79511513671875Z" fill-rule="evenodd" fill="#FFFFFF" fill-opacity="1"/></g><g><rect x="2.7841796875" y="2.78436279296875" width="16.225067138671875" height="16.225067138671875" rx="0" fill-opacity="0" stroke-opacity="1" stroke="#FFFFFF" fill="none" stroke-width="0.07925745844841003"/></g><g><rect x="1.87890625" y="3.69061279296875" width="18.03668212890625" height="14.413515090942383" rx="0" fill-opacity="0" stroke-opacity="1" stroke="#FFFFFF" fill="none" stroke-width="0.07925745844841003"/></g><g transform="matrix(0,1,-1,0,19.98358154296875,-16.22442626953125)"><rect x="18.10400390625" y="1.87957763671875" width="18.03668212890625" height="14.413515090942383" rx="0" fill-opacity="0" stroke-opacity="1" stroke="#FFFFFF" fill="none" stroke-width="0.07925745844841003"/></g><g transform="matrix(0,1,-1,0,21.79461669921875,-18.03546142578125)"><rect x="19.9150390625" y="1.87957763671875" width="18.03668212890625" height="18.03668212890625" rx="0.7529415488243103" fill-opacity="0" stroke-opacity="1" stroke="#FFFFFF" fill="none" stroke-width="0.07925745844841003"/></g><g><ellipse cx="10.897247314453125" cy="10.897918701171875" rx="9.018341064453125" ry="9.018341064453125" fill-opacity="0" stroke-opacity="1" stroke="#FFFFFF" fill="none" stroke-width="0.07925745844841003"/></g><g><ellipse cx="10.89661979675293" cy="10.89729118347168" rx="5.39515495300293" ry="5.39515495300293" fill-opacity="0" stroke-opacity="1" stroke="#FFFFFF" fill="none" stroke-width="0.07925745844841003"/></g></g><g><g><rect x="2.405294418334961" y="4.444052219390869" width="16.983694076538086" height="12.907607078552246" rx="0" fill-opacity="0" stroke-opacity="1" stroke="#DBF378" fill="none" stroke-width="2.0380430221557617" stroke-linecap="ROUND"/></g><g transform="matrix(1,0,0,-1,0,12.2845458984375)"><path d="M5.8022685856628415,6.14227294921875L7.840308585662842,6.14227294921875L7.840308585662842,9.53901294921875L5.8022685856628415,9.53901294921875L5.8022685856628415,6.14227294921875ZM13.954438585662842,9.53901294921875L13.954438585662842,6.14227294921875L15.992478585662841,6.14227294921875L15.992478585662841,9.53901294921875L13.954438585662842,9.53901294921875Z" fill-rule="evenodd" fill="#DBF378" fill-opacity="1"/></g><g transform="matrix(1,0,0,-1,0,22.7835693359375)"><path d="M13.388129523162842,10.37276466796875L8.406249523162842,10.37276466796875L8.406249523162842,12.41080466796875L13.388129523162842,12.41080466796875L13.388129523162842,10.37276466796875Z" fill-rule="evenodd" fill="#DBF378" fill-opacity="1"/></g></g></g></svg>