<svg xmlns="http://www.w3.org/2000/svg" xmlns:xlink="http://www.w3.org/1999/xlink" fill="none" version="1.1" width="21" height="14" viewBox="0 0 21 14"><g style="mix-blend-mode:passthrough"><path d="M10.5,13.0622Q10.1027,13.2916,9.67879,13.4672Q9.25491,13.6427,8.81174,13.7615Q8.36856,13.8802,7.91368,13.9401Q7.45881,14,7,14Q6.82816,14,6.65653,13.9916Q6.48489,13.9831,6.31388,13.9663Q6.14287,13.9494,5.97289,13.9242Q5.80291,13.899,5.63437,13.8655Q5.46583,13.832,5.29914,13.7902Q5.13245,13.7485,4.96801,13.6986Q4.80357,13.6487,4.64177,13.5908Q4.47998,13.5329,4.32122,13.4672Q4.16246,13.4014,4.00711,13.3279Q3.85177,13.2545,3.70022,13.1734Q3.54867,13.0924,3.40128,13.0041Q3.25389,12.9158,3.11101,12.8203Q2.96813,12.7248,2.8301,12.6225Q2.69208,12.5201,2.55925,12.4111Q2.42641,12.3021,2.29909,12.1867Q2.17176,12.0713,2.05025,11.9497Q1.92874,11.8282,1.81334,11.7009Q1.69794,11.5736,1.58893,11.4408Q1.47991,11.3079,1.37755,11.1699Q1.27518,11.0319,1.17971,10.889Q1.08424,10.7461,0.9959,10.5987Q0.907556,10.4513,0.826551,10.2998Q0.745546,10.1482,0.672075,9.99288Q0.598604,9.83754,0.532843,9.67878Q0.467083,9.52002,0.409191,9.35823Q0.3513,9.19643,0.301418,9.03199Q0.251535,8.86755,0.209781,8.70086Q0.168027,8.53417,0.134503,8.36563Q0.100979,8.19709,0.0757644,8.02711Q0.0505502,7.85713,0.0337069,7.68612Q0.0168636,7.51511,0.0084318,7.34347Q0,7.17184,0,7Q0,6.82816,0.0084318,6.65653Q0.0168636,6.48489,0.0337069,6.31388Q0.0505502,6.14287,0.0757644,5.97289Q0.100979,5.80291,0.134503,5.63437Q0.168027,5.46583,0.209781,5.29914Q0.251535,5.13245,0.301418,4.96801Q0.3513,4.80357,0.409191,4.64177Q0.467083,4.47998,0.532843,4.32122Q0.598604,4.16246,0.672075,4.00711Q0.745546,3.85177,0.826551,3.70022Q0.907556,3.54867,0.995899,3.40128Q1.08424,3.25389,1.17971,3.11101Q1.27518,2.96813,1.37755,2.8301Q1.47991,2.69208,1.58893,2.55925Q1.69794,2.42641,1.81334,2.29909Q1.92874,2.17176,2.05025,2.05025Q2.17176,1.92874,2.29909,1.81334Q2.42641,1.69794,2.55925,1.58893Q2.69208,1.47991,2.8301,1.37755Q2.96813,1.27518,3.11101,1.17971Q3.25389,1.08424,3.40128,0.9959Q3.54867,0.907556,3.70022,0.826551Q3.85177,0.745546,4.00711,0.672075Q4.16246,0.598604,4.32122,0.532843Q4.47998,0.467083,4.64177,0.409191Q4.80357,0.3513,4.96801,0.301418Q5.13245,0.251535,5.29914,0.209781Q5.46583,0.168027,5.63437,0.134503Q5.80291,0.100979,5.97289,0.0757644Q6.14287,0.0505502,6.31388,0.0337069Q6.48489,0.0168636,6.65653,0.0084318Q6.82816,0,7,0Q7.45881,0,7.91368,0.059886Q8.36856,0.119772,8.81173,0.238519Q9.25491,0.357267,9.67879,0.532844Q10.1027,0.708421,10.5,0.937823Q10.8973,0.708421,11.3212,0.532844Q11.7451,0.357267,12.1883,0.238519Q12.6314,0.119772,13.0863,0.059886Q13.5412,-6.0343e-16,14,0Q14.1718,0,14.3435,0.0084318Q14.5151,0.0168636,14.6861,0.0337069Q14.8571,0.0505502,15.0271,0.0757644Q15.1971,0.100979,15.3656,0.134503Q15.5342,0.168027,15.7009,0.209781Q15.8675,0.251535,16.032,0.301418Q16.1964,0.3513,16.3582,0.409191Q16.52,0.467083,16.6788,0.532843Q16.8375,0.598604,16.9929,0.672075Q17.1482,0.745546,17.2998,0.826551Q17.4513,0.907556,17.5987,0.995899Q17.7461,1.08424,17.889,1.17971Q18.0319,1.27518,18.1699,1.37755Q18.3079,1.47991,18.4408,1.58893Q18.5736,1.69794,18.7009,1.81334Q18.8282,1.92874,18.9497,2.05025Q19.0713,2.17176,19.1867,2.29909Q19.3021,2.42641,19.4111,2.55925Q19.5201,2.69208,19.6225,2.8301Q19.7248,2.96813,19.8203,3.11101Q19.9158,3.25389,20.0041,3.40128Q20.0924,3.54867,20.1734,3.70022Q20.2544,3.85177,20.3279,4.00711Q20.4014,4.16246,20.4672,4.32122Q20.5329,4.47998,20.5908,4.64177Q20.6487,4.80357,20.6986,4.96801Q20.7485,5.13245,20.7902,5.29914Q20.832,5.46583,20.8655,5.63437Q20.899,5.80291,20.9242,5.97289Q20.9494,6.14287,20.9663,6.31388Q20.9831,6.48489,20.9916,6.65653Q21,6.82816,21,7Q21,7.17184,20.9916,7.34347Q20.9831,7.51511,20.9663,7.68612Q20.9494,7.85713,20.9242,8.02711Q20.899,8.19709,20.8655,8.36563Q20.832,8.53417,20.7902,8.70086Q20.7485,8.86755,20.6986,9.03199Q20.6487,9.19643,20.5908,9.35823Q20.5329,9.52002,20.4672,9.67878Q20.4014,9.83754,20.3279,9.99288Q20.2544,10.1482,20.1734,10.2998Q20.0924,10.4513,20.0041,10.5987Q19.9158,10.7461,19.8203,10.889Q19.7248,11.0319,19.6225,11.1699Q19.5201,11.3079,19.4111,11.4408Q19.3021,11.5736,19.1867,11.7009Q19.0713,11.8282,18.9497,11.9497Q18.8282,12.0713,18.7009,12.1867Q18.5736,12.3021,18.4408,12.4111Q18.3079,12.5201,18.1699,12.6225Q18.0319,12.7248,17.889,12.8203Q17.7461,12.9158,17.5987,13.0041Q17.4513,13.0924,17.2998,13.1734Q17.1482,13.2545,16.9929,13.3279Q16.8375,13.4014,16.6788,13.4672Q16.52,13.5329,16.3582,13.5908Q16.1964,13.6487,16.032,13.6986Q15.8675,13.7485,15.7009,13.7902Q15.5342,13.832,15.3656,13.8655Q15.1971,13.899,15.0271,13.9242Q14.8571,13.9494,14.6861,13.9663Q14.5151,13.9831,14.3435,13.9916Q14.1718,14,14,14Q13.5412,14,13.0863,13.9401Q12.6314,13.8802,12.1883,13.7615Q11.7451,13.6427,11.3212,13.4672Q10.8973,13.2916,10.5,13.0622Z" fill-rule="evenodd" fill="#FFFFFF" fill-opacity="1"/></g></svg>