<svg xmlns="http://www.w3.org/2000/svg" xmlns:xlink="http://www.w3.org/1999/xlink" fill="none" version="1.1" width="13.5859375" height="12.2548828125" viewBox="0 0 13.5859375 12.2548828125"><g style="opacity:0.5;"><g><path d="M6.808265,12.25488671875L12.216975,7.32739671875L12.219775,7.32483671875Q13.590275,6.06921671875,13.587675,4.27005671875Q13.584975,2.47115671875,12.208075,1.21659671875Q10.887625,0.020366718750000068,9.048985,0.020366718750000068Q7.812215,0.020366718750000068,6.809915,0.56162071875Q5.794215,0.00018671874999998117,4.534885,0.00018671874999998117Q2.694575,0.00018671874999998117,1.3715109,1.20189471875Q0.0006749999999999812,2.45454671875,0.0006749999999999812,4.251826718749999Q0.0006749999999999812,6.04909671875,1.3730184,7.30312671875L6.808265,12.25488671875ZM6.781725,2.20489671875L6.802155,2.22352371875C7.399205,1.68262671875,8.206985,1.37905791875,9.048985,1.37905791875C9.890995,1.37905791875,10.698775,1.68262671875,11.295825,2.22352371875C11.892275,2.76694671875,12.227775,3.50362671875,12.228975,4.27208671875C12.230075,5.040536718749999,11.896775,5.77810671875,11.301945,6.32300671875L6.808275,10.41685671875L2.288048,6.29874671875C1.69333,5.75529671875,1.359375,5.01921671875,1.359375,4.251826718749999C1.359375,3.48443671875,1.69333,2.7483467187499997,2.288048,2.20489671875C2.884575,1.66309471875,3.692545,1.35888671875,4.534885,1.35888671875C5.377225,1.35888671875,6.185195,1.66309471875,6.781725,2.20489671875Z" fill-rule="evenodd" fill="#FFFFFF" fill-opacity="1"/></g><g><path d="M8.16086,1.40718671875Q8.26632,1.31058271875,8.32393,1.17968171875Q8.381540000000001,1.04877971875,8.381540000000001,0.90576171875Q8.381540000000001,0.83878751875,8.36847,0.77310071875Q8.35541,0.70741271875,8.32978,0.6455367187500001Q8.30415,0.58366071875,8.26694,0.52797371875Q8.22973,0.47228671875,8.18237,0.42492871875Q8.13501,0.37757171874999995,8.07933,0.34036271875Q8.02364,0.30315371874999997,7.96176,0.27752371875000004Q7.89989,0.25189371875,7.8342,0.23882771874999997Q7.76851,0.22576171874999995,7.70154,0.22576171874999995Q7.55852,0.22576171874999995,7.42762,0.28337271875000003Q7.2967200000000005,0.34098371875,7.2001100000000005,0.44644471875L4.050879,3.59568171875L4.050417,3.59522171875L3.56958,4.07605171875L4.53125,5.03772171875L5.012083,4.556881718750001L5.011622,4.55642171875L8.16086,1.40718671875Z" fill-rule="evenodd" fill="#FFFFFF" fill-opacity="1"/></g></g></svg>