<svg xmlns="http://www.w3.org/2000/svg" xmlns:xlink="http://www.w3.org/1999/xlink" fill="none" version="1.1" width="15" height="13.529296875" viewBox="0 0 15 13.529296875"><g style="opacity:0.5;mix-blend-mode:passthrough"><g style="mix-blend-mode:passthrough"><path d="M13.4868,8.08923L7.51558,13.5292L1.5150622,8.062439999999999Q0,6.67799,0,4.6937999999999995Q0,2.70961,1.5133976,1.326681Q2.9740599999999997,0,5.00576,0Q6.39606,0,7.51739,0.619819Q8.62393,0.022270000000000012,9.98933,0.022270000000000012Q12.0192,0.022270000000000012,13.4769,1.342913Q14.997,2.72795,15,4.7139299999999995Q15.003,6.70021,13.4899,8.08641L13.4868,8.08923ZM7.50883,2.454559L7.48627,2.433995C6.82771,1.835845,5.9357,1.5,5.00576,1.5C4.07582,1.5,3.18382,1.835845,2.5252499999999998,2.433995C1.868687,3.03396,1.5,3.8466,1.5,4.6937999999999995C1.5,5.541,1.868687,6.35364,2.5252499999999998,6.95361L7.51559,11.5L12.4766,6.98039C13.1332,6.37882,13.5013,5.56454,13.5,4.71617C13.4987,3.8678,13.1283,3.0545,12.4698,2.454559C11.8107,1.857409,10.91891,1.522269,9.98933,1.522269C9.05976,1.522269,8.16797,1.857409,7.50883,2.454559Z" fill-rule="evenodd" fill="#FFFFFF" fill-opacity="1"/></g><g style="mix-blend-mode:passthrough"><path d="M5.53033,5.03033L4.46967,3.96967L7.96967,0.46967000000000003L9.03033,1.53033L5.53033,5.03033Z" fill-rule="evenodd" fill="#FFFFFF" fill-opacity="1"/></g></g></svg>