<svg xmlns="http://www.w3.org/2000/svg" xmlns:xlink="http://www.w3.org/1999/xlink" fill="none" version="1.1" width="16.0576171875" height="16.05859375" viewBox="0 0 16.0576171875 16.05859375"><g><g style="opacity:0;"><g><rect x="0.0699852854013443" y="0.0709618479013443" width="15.916019648313522" height="15.916019648313522" rx="0" fill-opacity="0" stroke-opacity="1" stroke="#999999" fill="none" stroke-width="0.0833299458026886"/></g><g><path d="M7.9866553125,16.028596874999998L7.9866553125,0.029296875L8.0699853125,0.029296875L8.0699853125,16.028596874999998L7.9866553125,16.028596874999998Z" fill-rule="evenodd" fill="#999999" fill-opacity="1"/></g><g transform="matrix(0,1,-1,0,24.0576171875,-7.9990234375)"><path d="M15.9866553125,24.028596874999998L15.9866553125,8.029296875L16.0699853125,8.029296875L16.0699853125,24.028596874999998L15.9866553125,24.028596874999998Z" fill-rule="evenodd" fill="#999999" fill-opacity="1"/></g><g transform="matrix(0.7071067690849304,0.7071067690849304,-0.7071067690849304,0.7071067690849304,4.715302541095298,-11.325152933655772)"><path d="M15.9866553125,22.655596875L15.9866553125,0.029296875L16.0699853125,0.029296875L16.0699853125,22.655596875L15.9866553125,22.655596875Z" fill-rule="evenodd" fill="#999999" fill-opacity="1"/></g><g transform="matrix(-0.7071067690849304,0.7071067690849304,-0.7071067690849304,-0.7071067690849304,38.69647842651466,16.029987408954185)"><path d="M15.9866553125,38.655596875L15.9866553125,16.029296875L16.0699853125,16.029296875L16.0699853125,38.655596875L15.9866553125,38.655596875Z" fill-rule="evenodd" fill="#999999" fill-opacity="1"/></g><g><rect x="1.4039696604013443" y="1.4029930979013443" width="13.24946042895317" height="13.24946042895317" rx="0" fill-opacity="0" stroke-opacity="1" stroke="#999999" fill="none" stroke-width="0.0833299458026886"/></g><g><rect x="2.7360009104013443" y="1.4029930979013443" width="10.582903116941452" height="13.24946042895317" rx="0" fill-opacity="0" stroke-opacity="1" stroke="#999999" fill="none" stroke-width="0.0833299458026886"/></g><g transform="matrix(0,1,-1,0,17.3916015625,-11.9970703125)"><rect x="14.736000910401344" y="2.7389305979013443" width="10.582903116941452" height="13.24946042895317" rx="0" fill-opacity="0" stroke-opacity="1" stroke="#999999" fill="none" stroke-width="0.0833299458026886"/></g><g><rect x="2.0699852854013443" y="2.0709618479013443" width="11.916182726621628" height="11.916182726621628" rx="0" fill-opacity="0" stroke-opacity="1" stroke="#999999" fill="none" stroke-width="0.0833299458026886"/></g><g><ellipse cx="8.02869987487793" cy="8.02772331237793" rx="6.624730214476585" ry="6.624730214476585" fill-opacity="0" stroke-opacity="1" stroke="#999999" fill="none" stroke-width="0.0833299458026886"/></g><g><ellipse cx="8.028157711029053" cy="8.029134273529053" rx="3.9581724256277084" ry="3.9581724256277084" fill-opacity="0" stroke-opacity="1" stroke="#999999" fill="none" stroke-width="0.0833299458026886"/></g></g><g transform="matrix(1,0,0,-1,0,12.05859375)"><path d="M9.8608559375,5.362656875L6.1943359375,5.362656875L6.1943359375,5.364296875L5.5293329374999995,5.3642938749999995L5.5293329374999995,6.6942998750000005L6.1943359375,6.694296875L6.1943359375,6.695936875L9.8608559375,6.695936875L9.8608559375,6.694296875L10.525855937500001,6.6942998750000005L10.525855937500001,5.3642938749999995L9.8608559375,5.364296875L9.8608559375,5.362656875Z" fill-rule="evenodd" fill="#999999" fill-opacity="1"/></g><g transform="matrix(1,0,0,-1,0,20.05859375)"><path d="M9.8608559375,9.362656875L6.1943359375,9.362656875L6.1943359375,9.364296875L5.5293329374999995,9.364293875L5.5293329374999995,10.694299875L6.1943359375,10.694296875L6.1943359375,10.695936875L9.8608559375,10.695936875L9.8608559375,10.694296875L10.525855937500001,10.694299875L10.525855937500001,9.364293875L9.8608559375,9.364296875L9.8608559375,9.362656875Z" fill-rule="evenodd" fill="#999999" fill-opacity="1"/></g><g transform="matrix(0,1,-1,0,14.7255859375,-9.3310546875)"><rect x="11.361680746078491" y="2.030626058578491" width="11.999512195587158" height="9.332953929901123" rx="0" fill-opacity="0" stroke-opacity="1" stroke="#999999" fill="none" stroke-width="1.3332791328430176" stroke-linecap="ROUND"/></g></g></svg>