<svg xmlns="http://www.w3.org/2000/svg" xmlns:xlink="http://www.w3.org/1999/xlink" fill="none" version="1.1" width="14.27734375" height="13.5869140625" viewBox="0 0 14.27734375 13.5869140625"><g style="opacity:0.5;"><g><ellipse cx="7.139803886413574" cy="6.793669700622559" rx="6.114130854606628" ry="6.114130854606628" fill-opacity="0" stroke-opacity="1" stroke="#FFFFFF" fill="none" stroke-width="1.3586957454681396" stroke-linecap="ROUND"/></g><g><g transform="matrix(0.5846285223960876,0.8113011717796326,-0.5846285223960876,0.8113011717796326,5.56772031636342,-7.861516347009228)"><path d="M10.896156654541016,2.2928109375Q10.896739654541015,2.2787357375,10.896739654541015,2.2646484375Q10.896739654541015,2.1976742375,10.883673654541015,2.1319874375Q10.870607654541015,2.0662994375,10.844977654541015,2.0044234375Q10.819347654541016,1.9425474375,10.782138654541015,1.8868604375Q10.744929654541016,1.8311734375,10.697572654541016,1.7838154375Q10.650214654541015,1.7364584375,10.594527654541016,1.6992494375Q10.538840654541016,1.6620404375,10.476964654541016,1.6364104375Q10.415088654541016,1.6107804374999999,10.349400654541016,1.5977144375Q10.283713854541016,1.5846484374999998,10.216739654541016,1.5846484374999998Q10.149765454541015,1.5846484374999998,10.084078654541015,1.5977144375Q10.018390654541015,1.6107804374999999,9.956514654541015,1.6364104375Q9.894638654541016,1.6620404375,9.838951654541015,1.6992494375Q9.783264654541016,1.7364584375,9.735906654541015,1.7838154375Q9.688549654541015,1.8311734375,9.651340654541016,1.8868604375Q9.614131654541016,1.9425474375,9.588501654541016,2.0044234375Q9.562871654541016,2.0662994375,9.549805654541016,2.1319874375Q9.536739654541016,2.1976742375,9.536739654541016,2.2646484375Q9.536739654541016,2.2802804375,9.537457654541015,2.2958959375Q9.548448654541016,4.8693984375,11.371409654541015,6.6923584375Q13.194359654541016,8.5153084375,15.767859654541017,8.5262984375Q15.783479654541015,8.5270184375,15.799109654541017,8.5270184375Q15.866089654541016,8.5270184375,15.931769654541014,8.513958437500001Q15.997459654541014,8.500888437499999,16.059339654541017,8.475258437499999Q16.121209654541016,8.4496284375,16.176899654541018,8.412418437500001Q16.232589654541016,8.3752084375,16.279949654541014,8.3278584375Q16.327299654541015,8.2804984375,16.364509654541017,8.2248084375Q16.401719654541015,8.1691184375,16.427349654541015,8.107248437500001Q16.452979654541014,8.045368437499999,16.466049654541017,7.9796784375Q16.479109654541016,7.9139984375,16.479109654541016,7.8470184375Q16.479109654541016,7.7800484375,16.466049654541017,7.7143584375Q16.452979654541014,7.6486684375,16.427349654541015,7.5867984375Q16.401719654541015,7.5249184375,16.364509654541017,7.4692384375Q16.327299654541015,7.4135484375,16.279949654541014,7.3661884375Q16.232589654541016,7.3188284375,16.176899654541018,7.2816184375Q16.121209654541016,7.2444184375,16.059339654541017,7.2187884375Q15.997459654541014,7.1931584375,15.931769654541014,7.1800884375Q15.866089654541016,7.1670184375,15.799109654541017,7.1670184375Q15.785029654541017,7.1670184375,15.770969654541016,7.1676084375Q13.758249654541016,7.1577084375,12.332149654541016,5.7316084375Q10.906054654541016,4.3055184375,10.896156654541016,2.2928109375Z" fill-rule="evenodd" fill="#FFFFFF" fill-opacity="1"/></g><g><path d="M1.7347947045410157,7.47280503125Q1.7199149045410156,7.47345703125,1.7050209045410156,7.47345703125Q1.6380467045410156,7.47345703125,1.5723599045410157,7.46039103125Q1.5066719045410157,7.44732503125,1.4447959045410157,7.42169503125Q1.3829199045410157,7.39606503125,1.3272329045410156,7.35885603125Q1.2715459045410156,7.32164703125,1.2241879045410156,7.27429003125Q1.1768309045410157,7.22693203125,1.1396219045410156,7.17124503125Q1.1024129045410156,7.11555803125,1.0767829045410156,7.05368203125Q1.0511529045410155,6.99180603125,1.0380869045410157,6.92611803125Q1.0250209045410155,6.86043123125,1.0250209045410155,6.79345703125Q1.0250209045410155,6.72648283125,1.0380869045410157,6.66079603125Q1.0511529045410155,6.59510803125,1.0767829045410156,6.53323203125Q1.1024129045410156,6.47135603125,1.1396219045410156,6.41566903125Q1.1768309045410157,6.35998203125,1.2241879045410156,6.31262403125Q1.2715459045410156,6.26526703125,1.3272329045410156,6.22805803125Q1.3829199045410157,6.19084903125,1.4447959045410157,6.16521903125Q1.5066719045410157,6.13958903125,1.5723599045410157,6.12652303125Q1.6380467045410156,6.11345703125,1.7050209045410156,6.11345703125Q1.7199149045410156,6.11345703125,1.7347947045410157,6.11410903125L12.544820904541016,6.11410903125Q12.559720904541015,6.11345703125,12.574620904541016,6.11345703125Q12.641520904541016,6.11345703125,12.707220904541016,6.12652303125Q12.772920904541015,6.13958903125,12.834820904541015,6.16521903125Q12.896720904541016,6.19084903125,12.952420904541016,6.22805803125Q13.008020904541016,6.26526703125,13.055420904541016,6.31262403125Q13.102820904541016,6.35998203125,13.140020904541016,6.41566903125Q13.177220904541016,6.47135603125,13.202820904541015,6.53323203125Q13.228420904541016,6.59510803125,13.241520904541016,6.66079603125Q13.254620904541015,6.72648283125,13.254620904541015,6.79345703125Q13.254620904541015,6.86043123125,13.241520904541016,6.92611803125Q13.228420904541016,6.99180603125,13.202820904541015,7.05368203125Q13.177220904541016,7.11555803125,13.140020904541016,7.17124503125Q13.102820904541016,7.22693203125,13.055420904541016,7.27429003125Q13.008020904541016,7.32164703125,12.952420904541016,7.35885603125Q12.896720904541016,7.39606503125,12.834820904541015,7.42169503125Q12.772920904541015,7.44732503125,12.707220904541016,7.46039103125Q12.641520904541016,7.47345703125,12.574620904541016,7.47345703125Q12.559720904541015,7.47345703125,12.544820904541016,7.47280503125L1.7347947045410157,7.47280503125Z" fill-rule="evenodd" fill="#FFFFFF" fill-opacity="1"/></g><g transform="matrix(-0.5846285223960876,0.8113011717796326,0.5846285223960876,0.8113011717796326,5.110389651717696,-2.8669435082408654)"><path d="M4.739906654541016,2.2928109375Q4.740489654541015,2.2787357375,4.740489654541015,2.2646484375Q4.740489654541015,2.1976742375,4.727423654541016,2.1319874375Q4.714357654541016,2.0662994375,4.688727654541015,2.0044234375Q4.663097654541016,1.9425474375,4.625888654541016,1.8868604375Q4.588679654541016,1.8311734375,4.541322654541015,1.7838154375Q4.493964654541015,1.7364584375,4.438277654541015,1.6992494375Q4.382590654541016,1.6620404375,4.320714654541016,1.6364104375Q4.258838654541016,1.6107804374999999,4.193150654541015,1.5977144375Q4.127463854541015,1.5846484374999998,4.060489654541016,1.5846484374999998Q3.9935154545410154,1.5846484374999998,3.9278286545410155,1.5977144375Q3.8621406545410157,1.6107804374999999,3.8002646545410155,1.6364104375Q3.7383886545410157,1.6620404375,3.682701654541016,1.6992494375Q3.6270146545410156,1.7364584375,3.5796566545410156,1.7838154375Q3.5322996545410157,1.8311734375,3.4950906545410154,1.8868604375Q3.4578816545410156,1.9425474375,3.4322516545410156,2.0044234375Q3.4066216545410155,2.0662994375,3.3935556545410157,2.1319874375Q3.3804896545410155,2.1976742375,3.3804896545410155,2.2646484375Q3.3804896545410155,2.2802804375,3.3812076545410155,2.2958959375Q3.3921986545410157,4.8693984375,5.215159654541016,6.6923584375Q7.038109654541016,8.5153084375,9.611609654541017,8.5262984375Q9.627229654541015,8.5270184375,9.642859654541017,8.5270184375Q9.709839654541016,8.5270184375,9.775519654541014,8.513958437500001Q9.841209654541014,8.500888437499999,9.903089654541017,8.475258437499999Q9.964959654541016,8.4496284375,10.020649654541016,8.412418437500001Q10.076339654541016,8.3752084375,10.123699654541015,8.3278584375Q10.171049654541015,8.2804984375,10.208259654541017,8.2248084375Q10.245469654541015,8.1691184375,10.271099654541015,8.107248437500001Q10.296729654541014,8.045368437499999,10.309799654541017,7.9796784375Q10.322859654541016,7.9139984375,10.322859654541016,7.8470184375Q10.322859654541016,7.7800484375,10.309799654541017,7.7143584375Q10.296729654541014,7.6486684375,10.271099654541015,7.5867984375Q10.245469654541015,7.5249184375,10.208259654541017,7.4692384375Q10.171049654541015,7.4135484375,10.123699654541015,7.3661884375Q10.076339654541016,7.3188284375,10.020649654541016,7.2816184375Q9.964959654541016,7.2444184375,9.903089654541017,7.2187884375Q9.841209654541014,7.1931584375,9.775519654541014,7.1800884375Q9.709839654541016,7.1670184375,9.642859654541017,7.1670184375Q9.628779654541017,7.1670184375,9.614719654541016,7.1676084375Q7.601999654541016,7.1577084375,6.175899654541015,5.7316084375Q4.749804654541015,4.3055184375,4.739906654541016,2.2928109375Z" fill-rule="evenodd" fill="#FFFFFF" fill-opacity="1"/></g></g></g></svg>