<svg xmlns="http://www.w3.org/2000/svg" xmlns:xlink="http://www.w3.org/1999/xlink" fill="none" version="1.1" width="15.75390625" height="12.43359375" viewBox="0 0 15.75390625 12.43359375"><g style="mix-blend-mode:passthrough"><g style="mix-blend-mode:passthrough" transform="matrix(0.5846285223960876,0.8113011717796326,-0.5846285223960876,0.8113011717796326,5.3942401808547515,-8.916938731238758)"><path d="M17.43686292022705,8.129736874999999Q14.57343292022705,8.129736874999999,12.548672920227052,6.104986875Q10.52392292022705,4.080226875,10.52392292022705,1.21679586879Q10.52392292022705,1.142927375,10.53833492022705,1.070477875Q10.55274492022705,0.998028875,10.58101392022705,0.929783875Q10.609281920227051,0.861537875,10.65032092022705,0.800118875Q10.69135992022705,0.738699875,10.743592920227051,0.686466875Q10.79582592022705,0.634233875,10.857244920227052,0.593194875Q10.918664920227052,0.552155875,10.98690992022705,0.523886875Q11.055155920227051,0.495618875,11.12760492022705,0.48120787499999995Q11.200054420227051,0.466796875,11.27392292022705,0.466796875Q11.34779142022705,0.466796875,11.420240920227052,0.48120787499999995Q11.49268992022705,0.495618875,11.56093592022705,0.523886875Q11.62918092022705,0.552155875,11.69060092022705,0.593194875Q11.75201992022705,0.634233875,11.80425292022705,0.686466875Q11.856485920227051,0.738699875,11.89752492022705,0.800118875Q11.938564920227051,0.861537875,11.96683292022705,0.929783875Q11.99510092022705,0.998028875,12.009511920227052,1.070478875Q12.02392292022705,1.142927575,12.02392292022705,1.216795973861Q12.02392292022705,3.458906875,13.60933292022705,5.044326874999999Q15.194752920227051,6.629736875,17.43686292022705,6.629736875Q17.51073292022705,6.629736875,17.583182920227053,6.644146875Q17.65563292022705,6.658556875,17.723872920227052,6.686826875Q17.79212292022705,6.715096875,17.85354292022705,6.756136875Q17.91496292022705,6.797176875,17.96719292022705,6.849406875Q18.01942292022705,6.901636875,18.06046292022705,6.963056875Q18.101502920227052,7.024476875,18.12977292022705,7.092726875Q18.15804292022705,7.160966875,18.17245292022705,7.233416875Q18.18686292022705,7.305866875,18.18686292022705,7.379736875Q18.18686292022705,7.453606875,18.17245292022705,7.526056875Q18.15804292022705,7.598506875,18.12977292022705,7.666746875Q18.101502920227052,7.734996875,18.06046292022705,7.796416875Q18.01942292022705,7.857836875,17.96719292022705,7.910066875Q17.91496292022705,7.962296875,17.85354292022705,8.003336874999999Q17.79212292022705,8.044376875000001,17.723872920227052,8.072646875Q17.65563292022705,8.100916875,17.583182920227053,8.115326875000001Q17.51073292022705,8.129736874999999,17.43686292022705,8.129736874999999ZM18.18686292022705,7.379736875Q18.18686292022705,7.453606875,18.17245292022705,7.526056875Q18.15804292022705,7.598506875,18.12977292022705,7.666746875Q18.101502920227052,7.734996875,18.06046292022705,7.796416875Q18.01942292022705,7.857836875,17.96719292022705,7.910066875Q17.91496292022705,7.962296875,17.85354292022705,8.003336874999999Q17.79212292022705,8.044376875000001,17.723872920227052,8.072646875Q17.65563292022705,8.100916875,17.583182920227053,8.115326875000001Q17.51073292022705,8.129736874999999,17.43686292022705,8.129736874999999Q17.36299292022705,8.129736874999999,17.29054292022705,8.115326875000001Q17.21809292022705,8.100916875,17.14985292022705,8.072646875Q17.081602920227052,8.044376875000001,17.02018292022705,8.003336874999999Q16.958762920227052,7.962296875,16.90653292022705,7.910066875Q16.85430292022705,7.857836875,16.81326292022705,7.796416875Q16.77222292022705,7.734996875,16.743952920227052,7.666746875Q16.715682920227053,7.598506875,16.70127292022705,7.526056875Q16.68686292022705,7.453606875,16.68686292022705,7.379736875Q16.68686292022705,7.305866875,16.70127292022705,7.233416875Q16.715682920227053,7.160966875,16.743952920227052,7.092726875Q16.77222292022705,7.024476875,16.81326292022705,6.963056875Q16.85430292022705,6.901636875,16.90653292022705,6.849406875Q16.958762920227052,6.797176875,17.02018292022705,6.756136875Q17.081602920227052,6.715096875,17.14985292022705,6.686826875Q17.21809292022705,6.658556875,17.29054292022705,6.644146875Q17.36299292022705,6.629736875,17.43686292022705,6.629736875Q17.51073292022705,6.629736875,17.583182920227053,6.644146875Q17.65563292022705,6.658556875,17.723872920227052,6.686826875Q17.79212292022705,6.715096875,17.85354292022705,6.756136875Q17.91496292022705,6.797176875,17.96719292022705,6.849406875Q18.01942292022705,6.901636875,18.06046292022705,6.963056875Q18.101502920227052,7.024476875,18.12977292022705,7.092726875Q18.15804292022705,7.160966875,18.17245292022705,7.233416875Q18.18686292022705,7.305866875,18.18686292022705,7.379736875ZM12.02392292022705,1.216796875Q12.02392292022705,1.2906653750000001,12.009511920227052,1.363114875Q11.99510092022705,1.435563875,11.96683292022705,1.503809875Q11.93856392022705,1.572054875,11.89752492022705,1.633474875Q11.856485920227051,1.694893875,11.80425292022705,1.747126875Q11.75201992022705,1.799359875,11.69060092022705,1.840398875Q11.62918092022705,1.881437875,11.56093592022705,1.909706875Q11.49268992022705,1.937974875,11.420240920227052,1.952385875Q11.34779142022705,1.966796875,11.27392292022705,1.966796875Q11.200054420227051,1.966796875,11.12760492022705,1.952385875Q11.055155920227051,1.937974875,10.98690992022705,1.909706875Q10.918664920227052,1.881437875,10.857244920227052,1.840398875Q10.79582592022705,1.799359875,10.743592920227051,1.747126875Q10.69135992022705,1.694893875,10.65032092022705,1.633474875Q10.609281920227051,1.572054875,10.581012920227051,1.503809875Q10.55274492022705,1.435563875,10.53833392022705,1.363114875Q10.52392292022705,1.2906653750000001,10.52392292022705,1.216796875Q10.52392292022705,1.1429283749999999,10.53833392022705,1.070478875Q10.55274492022705,0.9980298750000001,10.581012920227051,0.929783875Q10.609281920227051,0.8615388749999999,10.65032092022705,0.800118875Q10.69135992022705,0.738699875,10.743592920227051,0.686466875Q10.79582592022705,0.634233875,10.857244920227052,0.593194875Q10.918664920227052,0.552155875,10.98690992022705,0.523886875Q11.055155920227051,0.495618875,11.12760492022705,0.48120787499999995Q11.200054420227051,0.466796875,11.27392292022705,0.466796875Q11.34779142022705,0.466796875,11.420240920227052,0.48120787499999995Q11.49268992022705,0.495618875,11.56093592022705,0.523886875Q11.62918092022705,0.552155875,11.69060092022705,0.593194875Q11.75201992022705,0.634233875,11.80425292022705,0.686466875Q11.856485920227051,0.738699875,11.89752492022705,0.800118875Q11.93856392022705,0.8615388749999999,11.96683292022705,0.929783875Q11.99510092022705,0.9980298750000001,12.009511920227052,1.070478875Q12.02392292022705,1.1429283749999999,12.02392292022705,1.216796875Z" fill="#FFFFFF" fill-opacity="1"/></g><g style="mix-blend-mode:passthrough"><path d="M1.876953125,5.466796875L13.876953125,5.466796875L13.876953125,6.966796875L1.876953125,6.966796875L1.876953125,5.466796875ZM2.626953125,6.216796875Q2.626953125,6.290665375,2.612542125,6.363114875Q2.598131125,6.435563875,2.569863125,6.503809875Q2.541594125,6.572054875,2.500555125,6.633474875Q2.459516125,6.694893875,2.407283125,6.747126875Q2.355050125,6.799359875,2.293631125,6.840398875Q2.232211125,6.881437875,2.163966125,6.909706875Q2.095720125,6.937974875,2.023271125,6.952385875Q1.9508216250000001,6.966796875,1.876953125,6.966796875Q1.8030846249999999,6.966796875,1.730635125,6.952385875Q1.658186125,6.937974875,1.589940125,6.909706875Q1.521695125,6.881437875,1.460275125,6.840398875Q1.398856125,6.799359875,1.346623125,6.747126875Q1.294390125,6.694893875,1.253351125,6.633474875Q1.212312125,6.572054875,1.184043125,6.503809875Q1.155775125,6.435563875,1.141364125,6.363114875Q1.126953125,6.290665375,1.126953125,6.216796875Q1.126953125,6.142928375,1.141364125,6.070478875Q1.155775125,5.998029875,1.184043125,5.929783875Q1.212312125,5.861538875,1.253351125,5.800118875Q1.294390125,5.738699875,1.346623125,5.686466875Q1.398856125,5.634233875,1.460275125,5.593194875Q1.521695125,5.552155875,1.589940125,5.523886875Q1.658186125,5.495618875,1.730635125,5.481207875Q1.8030846249999999,5.466796875,1.876953125,5.466796875Q1.9508216250000001,5.466796875,2.023271125,5.481207875Q2.095720125,5.495618875,2.163966125,5.523886875Q2.232211125,5.552155875,2.293631125,5.593194875Q2.355050125,5.634233875,2.407283125,5.686466875Q2.459516125,5.738699875,2.500555125,5.800118875Q2.541594125,5.861538875,2.569863125,5.929783875Q2.598131125,5.998029875,2.612542125,6.070478875Q2.626953125,6.142928375,2.626953125,6.216796875ZM14.626953125,6.216796875Q14.626953125,6.290665375,14.612553125,6.363114875Q14.598153125,6.435563875,14.569853125,6.503809875Q14.541553125,6.572054875,14.500553125,6.633474875Q14.459553125,6.694893875,14.407253125,6.747126875Q14.355053125,6.799359875,14.293653125,6.840398875Q14.232253125,6.881437875,14.163953125,6.909706875Q14.095753125,6.937974875,14.023253125,6.952385875Q13.950853125,6.966796875,13.876953125,6.966796875Q13.803053125,6.966796875,13.730653125,6.952385875Q13.658153125,6.937974875,13.589953125,6.909706875Q13.521653125,6.881437875,13.460253125,6.840398875Q13.398853125,6.799359875,13.346653125,6.747126875Q13.294353125,6.694893875,13.253353125,6.633474875Q13.212353125,6.572054875,13.184053125,6.503809875Q13.155753125,6.435563875,13.141353125,6.363114875Q13.126953125,6.290665375,13.126953125,6.216796875Q13.126953125,6.142928375,13.141353125,6.070478875Q13.155753125,5.998029875,13.184053125,5.929783875Q13.212353125,5.861538875,13.253353125,5.800118875Q13.294353125,5.738699875,13.346653125,5.686466875Q13.398853125,5.634233875,13.460253125,5.593194875Q13.521653125,5.552155875,13.589953125,5.523886875Q13.658153125,5.495618875,13.730653125,5.481207875Q13.803053125,5.466796875,13.876953125,5.466796875Q13.950853125,5.466796875,14.023253125,5.481207875Q14.095753125,5.495618875,14.163953125,5.523886875Q14.232253125,5.552155875,14.293653125,5.593194875Q14.355053125,5.634233875,14.407253125,5.686466875Q14.459553125,5.738699875,14.500553125,5.800118875Q14.541553125,5.861538875,14.569853125,5.929783875Q14.598153125,5.998029875,14.612553125,6.070478875Q14.626953125,6.142928375,14.626953125,6.216796875Z" fill="#FFFFFF" fill-opacity="1"/></g><g style="mix-blend-mode:passthrough" transform="matrix(-0.5846285223960876,0.8113011717796326,0.5846285223960876,0.8113011717796326,6.387735205129786,-3.405007580503309)"><path d="M10.642923329772948,8.129736874999999Q7.779493329772949,8.129736874999999,5.754733329772949,6.104986875Q3.729983329772949,4.080226875,3.729983329772949,1.21679586879Q3.729983329772949,1.142927375,3.7443953297729493,1.070477875Q3.758805329772949,0.998028875,3.787074329772949,0.929783875Q3.815342329772949,0.861537875,3.8563813297729492,0.800118875Q3.8974203297729493,0.738699875,3.949653329772949,0.686466875Q4.001886329772949,0.634233875,4.063305329772949,0.593194875Q4.124725329772949,0.552155875,4.192970329772949,0.523886875Q4.2612163297729495,0.495618875,4.333665329772949,0.48120787499999995Q4.4061148297729495,0.466796875,4.479983329772949,0.466796875Q4.553851829772949,0.466796875,4.626301329772949,0.48120787499999995Q4.698750329772949,0.495618875,4.766996329772949,0.523886875Q4.835241329772949,0.552155875,4.896661329772949,0.593194875Q4.958080329772949,0.634233875,5.010313329772949,0.686466875Q5.06254632977295,0.738699875,5.103585329772949,0.800118875Q5.144625329772949,0.861537875,5.17289332977295,0.929783875Q5.201161329772949,0.998028875,5.215572329772949,1.070478875Q5.229983329772949,1.142927575,5.229983329772949,1.216795973861Q5.229983329772949,3.458906875,6.815393329772949,5.044326874999999Q8.40081332977295,6.629736875,10.642923329772948,6.629736875Q10.71679332977295,6.629736875,10.78924332977295,6.644146875Q10.86169332977295,6.658556875,10.92993332977295,6.686826875Q10.99818332977295,6.715096875,11.05960332977295,6.756136875Q11.12102332977295,6.797176875,11.17325332977295,6.849406875Q11.225483329772949,6.901636875,11.266523329772948,6.963056875Q11.30756332977295,7.024476875,11.33583332977295,7.092726875Q11.364103329772949,7.160966875,11.37851332977295,7.233416875Q11.392923329772948,7.305866875,11.392923329772948,7.379736875Q11.392923329772948,7.453606875,11.37851332977295,7.526056875Q11.364103329772949,7.598506875,11.33583332977295,7.666746875Q11.30756332977295,7.734996875,11.266523329772948,7.796416875Q11.225483329772949,7.857836875,11.17325332977295,7.910066875Q11.12102332977295,7.962296875,11.05960332977295,8.003336874999999Q10.99818332977295,8.044376875000001,10.92993332977295,8.072646875Q10.86169332977295,8.100916875,10.78924332977295,8.115326875000001Q10.71679332977295,8.129736874999999,10.642923329772948,8.129736874999999ZM11.392923329772948,7.379736875Q11.392923329772948,7.453606875,11.37851332977295,7.526056875Q11.364103329772949,7.598506875,11.33583332977295,7.666746875Q11.30756332977295,7.734996875,11.266523329772948,7.796416875Q11.225483329772949,7.857836875,11.17325332977295,7.910066875Q11.12102332977295,7.962296875,11.05960332977295,8.003336874999999Q10.99818332977295,8.044376875000001,10.92993332977295,8.072646875Q10.86169332977295,8.100916875,10.78924332977295,8.115326875000001Q10.71679332977295,8.129736874999999,10.642923329772948,8.129736874999999Q10.569053329772949,8.129736874999999,10.496603329772949,8.115326875000001Q10.424153329772949,8.100916875,10.35591332977295,8.072646875Q10.28766332977295,8.044376875000001,10.226243329772949,8.003336874999999Q10.16482332977295,7.962296875,10.112593329772949,7.910066875Q10.06036332977295,7.857836875,10.019323329772948,7.796416875Q9.97828332977295,7.734996875,9.95001332977295,7.666746875Q9.92174332977295,7.598506875,9.90733332977295,7.526056875Q9.892923329772948,7.453606875,9.892923329772948,7.379736875Q9.892923329772948,7.305866875,9.90733332977295,7.233416875Q9.92174332977295,7.160966875,9.95001332977295,7.092726875Q9.97828332977295,7.024476875,10.019323329772948,6.963056875Q10.06036332977295,6.901636875,10.112593329772949,6.849406875Q10.16482332977295,6.797176875,10.226243329772949,6.756136875Q10.28766332977295,6.715096875,10.35591332977295,6.686826875Q10.424153329772949,6.658556875,10.496603329772949,6.644146875Q10.569053329772949,6.629736875,10.642923329772948,6.629736875Q10.71679332977295,6.629736875,10.78924332977295,6.644146875Q10.86169332977295,6.658556875,10.92993332977295,6.686826875Q10.99818332977295,6.715096875,11.05960332977295,6.756136875Q11.12102332977295,6.797176875,11.17325332977295,6.849406875Q11.225483329772949,6.901636875,11.266523329772948,6.963056875Q11.30756332977295,7.024476875,11.33583332977295,7.092726875Q11.364103329772949,7.160966875,11.37851332977295,7.233416875Q11.392923329772948,7.305866875,11.392923329772948,7.379736875ZM5.229983329772949,1.216796875Q5.229983329772949,1.2906653750000001,5.215572329772949,1.363114875Q5.201161329772949,1.435563875,5.17289332977295,1.503809875Q5.144624329772949,1.572054875,5.103585329772949,1.633474875Q5.06254632977295,1.694893875,5.010313329772949,1.747126875Q4.958080329772949,1.799359875,4.896661329772949,1.840398875Q4.835241329772949,1.881437875,4.766996329772949,1.909706875Q4.698750329772949,1.937974875,4.626301329772949,1.952385875Q4.553851829772949,1.966796875,4.479983329772949,1.966796875Q4.4061148297729495,1.966796875,4.333665329772949,1.952385875Q4.2612163297729495,1.937974875,4.192970329772949,1.909706875Q4.124725329772949,1.881437875,4.063305329772949,1.840398875Q4.001886329772949,1.799359875,3.949653329772949,1.747126875Q3.8974203297729493,1.694893875,3.8563813297729492,1.633474875Q3.815342329772949,1.572054875,3.7870733297729493,1.503809875Q3.758805329772949,1.435563875,3.744394329772949,1.363114875Q3.729983329772949,1.2906653750000001,3.729983329772949,1.216796875Q3.729983329772949,1.1429283749999999,3.744394329772949,1.070478875Q3.758805329772949,0.9980298750000001,3.7870733297729493,0.929783875Q3.815342329772949,0.8615388749999999,3.8563813297729492,0.800118875Q3.8974203297729493,0.738699875,3.949653329772949,0.686466875Q4.001886329772949,0.634233875,4.063305329772949,0.593194875Q4.124725329772949,0.552155875,4.192970329772949,0.523886875Q4.2612163297729495,0.495618875,4.333665329772949,0.48120787499999995Q4.4061148297729495,0.466796875,4.479983329772949,0.466796875Q4.553851829772949,0.466796875,4.626301329772949,0.48120787499999995Q4.698750329772949,0.495618875,4.766996329772949,0.523886875Q4.835241329772949,0.552155875,4.896661329772949,0.593194875Q4.958080329772949,0.634233875,5.010313329772949,0.686466875Q5.06254632977295,0.738699875,5.103585329772949,0.800118875Q5.144624329772949,0.8615388749999999,5.17289332977295,0.929783875Q5.201161329772949,0.9980298750000001,5.215572329772949,1.070478875Q5.229983329772949,1.1429283749999999,5.229983329772949,1.216796875Z" fill="#FFFFFF" fill-opacity="1"/></g></g></svg>