<svg xmlns="http://www.w3.org/2000/svg" xmlns:xlink="http://www.w3.org/1999/xlink" fill="none" version="1.1" width="75.0001220703125" height="71.31501770019531" viewBox="0 0 75.0001220703125 71.31501770019531"><g transform="matrix(0.9658114910125732,0.2592453062534332,-0.2592453062534332,0.9658114910125732,0.5061773187626386,-3.83825144493494)"><g transform="matrix(0.8727206587791443,-0.48821988701820374,0.5118734240531921,0.8590608835220337,-9.590904346862544,10.387946798913163)" style="opacity:0.20000000298023224;"><rect x="14.80548095703125" y="22.41830825805664" width="29.303573608398438" height="40.38320541381836" rx="6.13037109375" fill="#FFFFFF" fill-opacity="1"/></g><g transform="matrix(0.9679046869277954,-0.25131741166114807,0.26651111245155334,0.9638318419456482,-2.7649001172887324,5.92178946785873)"><rect x="21.69397735595703" y="12.986982345581055" width="31.01816177368164" height="42.262046813964844" rx="6.13037109375" fill="#B4B7C4" fill-opacity="1"/></g><g transform="matrix(1,-2.9802322387695312e-8,2.9802322387695312e-8,1,-1.5472069492261653e-7,9.159781768630637e-7)"><rect x="30.735127449035645" y="5.191565036773682" width="32.72035598754883" height="44.38608932495117" rx="6.13037109375" fill="#E2E4EA" fill-opacity="1"/></g><g transform="matrix(0.9679046869277954,0.25131741166114807,-0.2665111720561981,0.9638317823410034,1.4078561256440025,-11.02400081570039)"><rect x="43.864850997924805" y="0" width="34.369163513183594" height="46.827762603759766" rx="6.13037109375" fill="#FFFFFF" fill-opacity="1"/></g><g transform="matrix(0.967170000076294,0.25413036346435547,-0.26358160376548767,0.9646371006965637,5.042072707100516,-12.771561307717946)"><path d="M63.61336205444336,18.44139141571045C63.34306205444336,17.851711415710447,62.94996205444336,17.28660141571045,62.45856205444336,16.84434141571045C61.96714205444336,16.42665141571045,61.32832205444336,16.08267141571045,60.664932054443355,15.812391415710449C59.97696205444336,15.591261415710449,59.21529205444336,15.468411415710449,58.37991205444336,15.468411415710449C56.635432054443356,15.468411415710449,55.16123205444336,16.03353141571045,54.15386205444336,17.09004141571045C53.71160205444336,17.53230141571045,53.34304205444336,18.07284141571045,53.12191205444336,18.687091415710448C52.87621505444336,19.25221141571045,52.77793405444336,19.86646141571045,52.77793405444336,20.48071141571045L52.77793405444336,20.67727141571045L56.34059205444336,20.67727141571045L56.34059205444336,20.48071141571045C56.34059205444336,19.84189141571045,56.78285205444336,18.687091415710448,58.37991205444336,18.687091415710448C58.945022054443356,18.687091415710448,60.24724205444336,18.88365141571045,60.24724205444336,20.48071141571045C60.24724205444336,20.996681415710448,59.92782205444336,21.51265141571045,59.26443205444336,22.05319141571045C58.72389205444336,22.49546141571045,58.03593205444336,22.88857141571045,57.56910205444336,23.10967141571045C56.73371205444336,23.551971415710447,56.29145205444336,24.04337141571045,56.07032205444336,24.80507141571045C55.82462205444336,25.54217141571045,55.80005205444336,26.475771415710447,55.80005205444336,28.09747141571045L55.80005205444336,28.31857141571045L59.63298205444336,28.31857141571045L59.63298205444336,28.09747141571045C59.63298205444336,27.21287141571045,59.65755205444336,26.500371415710447,59.75583205444336,25.98437141571045C59.82954205444336,25.56667141571045,59.97696205444336,25.32097141571045,60.09982205444336,25.173571415710448C60.32095205444336,24.977071415710448,60.64036205444336,24.755871415710452,61.00891205444336,24.48567141571045C62.26196205444336,23.576571415710447,64.03106205444335,22.348041415710448,64.03106205444335,20.48071141571045C64.03106205444335,19.74361141571045,63.88356205444336,19.055641415710447,63.61336205444336,18.44139141571045ZM59.28900205444336,30.52987141571045C58.84674205444336,30.13677141571045,58.23249205444336,29.91557141571045,57.59367205444336,29.91557141571045C56.93028205444336,29.91557141571045,56.31602205444336,30.13677141571045,55.87376205444336,30.52987141571045C55.40693205444336,30.94757141571045,55.16123205444336,31.48807141571045,55.16123205444336,32.10237141571045C55.16123205444336,32.692071415710444,55.40693205444336,33.23257141571045,55.87376205444336,33.65027141571045C56.31602205444336,34.067971415710446,56.93028205444336,34.26457141571045,57.59367205444336,34.26457141571045C58.23249205444336,34.26457141571045,58.84674205444336,34.067971415710446,59.28900205444336,33.65027141571045C59.75583205444336,33.23257141571045,60.026102054443356,32.692071415710444,60.026102054443356,32.10237141571045C60.026102054443356,31.48807141571045,59.75583205444336,30.94757141571045,59.28900205444336,30.52987141571045Z" fill="#E2E4EA" fill-opacity="1"/></g></g></svg>