<svg xmlns="http://www.w3.org/2000/svg" xmlns:xlink="http://www.w3.org/1999/xlink" fill="none" version="1.1" width="13.5859375" height="12.00146484375" viewBox="0 0 13.5859375 12.00146484375"><g style="opacity:0.5;"><g><rect x="0.6800271272659302" y="4.528804898262024" width="12.228261709213257" height="6.793478727340698" rx="0" fill-opacity="0" stroke-opacity="1" stroke="#FFFFFF" fill="none" stroke-width="1.3586957454681396" stroke-linecap="ROUND"/></g><g transform="matrix(1,0,0,-1,0,8.604782104492188)"><path d="M3.851223,4.332164852246094Q3.851875,4.317285052246094,3.851875,4.302391052246094Q3.851875,4.235416852246094,3.838809,4.169730052246094Q3.825743,4.104042052246093,3.800113,4.042166052246094Q3.774483,3.980290052246094,3.737274,3.924603052246094Q3.700065,3.8689160522460937,3.652708,3.8215580522460937Q3.60535,3.774201052246094,3.549663,3.7369920522460935Q3.493976,3.6997830522460937,3.4321,3.6741530522460937Q3.370224,3.6485230522460936,3.304536,3.635457052246094Q3.2388492,3.6223910522460936,3.171875,3.6223910522460936Q3.1049008,3.6223910522460936,3.039214,3.635457052246094Q2.973526,3.6485230522460936,2.91165,3.6741530522460937Q2.849774,3.6997830522460937,2.794087,3.7369920522460935Q2.7384,3.774201052246094,2.691042,3.8215580522460937Q2.643685,3.8689160522460937,2.606476,3.924603052246094Q2.569267,3.980290052246094,2.543637,4.042166052246094Q2.518007,4.104042052246093,2.504941,4.169730052246094Q2.491875,4.235416852246094,2.491875,4.302391052246094Q2.491875,4.317285052246094,2.492527,4.332164852246094L2.492527,8.604931052246094L11.097595,8.604931052246094L11.097595,4.332158052246093Q11.098255,4.317281652246094,11.098255,4.302391052246094Q11.098255,4.235416852246094,11.085185,4.169730052246094Q11.072115,4.104042052246093,11.046485,4.042166052246094Q11.020855000000001,3.980290052246094,10.983654999999999,3.924603052246094Q10.946445,3.8689160522460937,10.899085,3.8215580522460937Q10.851725,3.774201052246094,10.796035,3.7369920522460935Q10.740355000000001,3.6997830522460937,10.678474999999999,3.6741530522460937Q10.616605,3.6485230522460936,10.550915,3.635457052246094Q10.485225,3.6223910522460936,10.418255,3.6223910522460936Q10.351275000000001,3.6223910522460936,10.285595,3.635457052246094Q10.219905,3.6485230522460936,10.158025,3.6741530522460937Q10.096155,3.6997830522460937,10.040465000000001,3.7369920522460935Q9.984774999999999,3.774201052246094,9.937415,3.8215580522460937Q9.890065,3.8689160522460937,9.852855,3.924603052246094Q9.815645,3.980290052246094,9.790015,4.042166052246094Q9.764385,4.104042052246093,9.751315,4.169730052246094Q9.738254999999999,4.235416852246094,9.738254999999999,4.302391052246094Q9.738254999999999,4.317281652246094,9.738904999999999,4.332158052246093L9.738904999999999,7.2462310522460935L3.851223,7.2462310522460935L3.851223,4.332164852246094Z" fill-rule="evenodd" fill="#FFFFFF" fill-opacity="1"/></g><g transform="matrix(1,0,0,-1,0,15.851852416992188)"><path d="M4.984375,7.246578208496094L4.984375,7.245926208496094L4.304372,7.245923208496094L4.304372,8.605929208496093L4.984375,8.605926208496093L4.984375,8.605274208496093L8.607565000000001,8.605274208496093L8.607565000000001,8.605926208496093L9.287565,8.605929208496093L9.287565,7.245923208496094L8.607565000000001,7.245926208496094L8.607565000000001,7.246578208496094L4.984375,7.246578208496094Z" fill-rule="evenodd" fill="#FFFFFF" fill-opacity="1"/></g></g></svg>