<svg xmlns="http://www.w3.org/2000/svg" xmlns:xlink="http://www.w3.org/1999/xlink" fill="none" version="1.1" width="12" height="12" viewBox="0 0 12 12"><g><g style="opacity:0;"><rect x="0" y="0" width="12" height="12" rx="0" fill="#D8D8D8" fill-opacity="1"/></g><g><g><path d="M2.9659984062499998,8.2523366015625L5.695306406249999,11.0155066015625L6.000206406249999,11.3241666015625L9.034706406249999,8.2520366015625Q10.28592640625,6.9828666015625,10.28592640625,5.1907766015625Q10.28592640625,3.3986866015625,9.03443640625,2.1292306015625Q7.77810640625,0.8571936015625,6.000206406249999,0.8571936015625Q4.22230640625,0.8571936015625,2.9657094062500002,2.1295096015625Q1.71449340625,3.3986866015625,1.71449440625,5.1907766015625Q1.71449340625,6.9828666015625,2.9659984062499998,8.2523366015625ZM6.000206406249999,10.1044766015625L8.42431640625,7.6502866015625Q9.428786406250001,6.6313966015625,9.428786406250001,5.1907766015625Q9.428786406250001,3.7501566015625,8.42458640625,2.7315466015625Q7.41994640625,1.7143356015625,6.000206406249999,1.7143356015625Q4.58046640625,1.7143356015625,3.57610640625,2.7312666015625Q2.57163640625,3.7501566015625,2.57163640625,5.1907766015625Q2.57163640625,6.6313966015625,3.57581640625,7.6499866015625L6.000206406249999,10.1044766015625Z" fill-rule="evenodd" fill="#acabab" fill-opacity="1"/></g><g><ellipse cx="5.999400019645691" cy="5.214250922203064" rx="1.542857050895691" ry="1.571428656578064" fill-opacity="0" stroke-opacity="1" stroke="#acabab" fill="none" stroke-width="0.8571428060531616"/></g></g></g></svg>