<svg xmlns="http://www.w3.org/2000/svg" xmlns:xlink="http://www.w3.org/1999/xlink" fill="none" version="1.1" width="18.5" height="16.5" viewBox="0 0 18.5 16.5"><g style="mix-blend-mode:passthrough"><path d="M18.5,5.75086Q18.5034,8.1387,16.752000000000002,9.8234L9.27077,16.979799999999997L1.7529439999999998,9.78832Q0,8.1064,0,5.72132Q0,3.33624,1.751584,1.655627Q3.48762,0,5.92435,0Q8.361080000000001,0,10.09438,1.653008L10.1261,1.683365L9.26177,2.58638L8.40024,1.6806969999999999Q10.1343,0.031179999999999986,12.5691,0.031179999999999986Q15.0039,0.031179999999999986,16.738,1.6806969999999999Q18.4966,3.36319,18.5,5.75086ZM16,5.75442Q15.9981,4.43271,15.0149,3.49207Q14.0048,2.53118,12.5691,2.53118Q11.13344,2.53118,10.1233,3.49207L9.2591,4.31414L8.36901,3.46218Q7.3601,2.5,5.92435,2.5Q4.4886,2.5,3.48243,3.45956Q2.5,4.4021799999999995,2.5,5.72132Q2.5,7.04046,3.48107,7.98178L10.13484,14.3467L9.27078,15.25L8.40673,14.3467L15.0189,8.02169Q16.0019,7.07611,16,5.75442Z" fill="#000000" fill-opacity="1"/></g></svg>