<svg xmlns="http://www.w3.org/2000/svg" xmlns:xlink="http://www.w3.org/1999/xlink" fill="none" version="1.1" width="36" height="36" viewBox="0 0 36 36"><defs><clipPath id="master_svg0_1940_75443"><rect x="9" y="9" width="18" height="18" rx="0"/></clipPath></defs><g><g><rect x="0" y="0" width="36" height="36" rx="18" fill="#000000" fill-opacity="1"/></g><g clip-path="url(#master_svg0_1940_75443)"><g><g><g style="opacity:0;"><ellipse cx="18" cy="18" rx="8" ry="8" fill="#DBF378" fill-opacity="1"/></g><g><path d="M18,26C20.2977,26,22.475099999999998,25.012700000000002,23.9874,23.305799999999998C24.1796,23.088900000000002,24.1279,22.7519,23.886699999999998,22.5912L17.62404,18.41603C17.32717,18.21811,17.32717,17.78189,17.62404,17.58397L23.886699999999998,13.40884C24.1279,13.24809,24.1796,12.91113,23.9874,12.694230000000001C22.475099999999998,10.987291,20.2977,10,18,10C13.58172,10,10,13.58172,10,18C10,22.418300000000002,13.58172,26,18,26ZM17.5,15C18.32843,15,19,14.32843,19,13.5C19,12.67157,18.32843,12,17.5,12C16.67157,12,16,12.67157,16,13.5C16,14.32843,16.67157,15,17.5,15Z" fill-rule="evenodd" fill="#DBF378" fill-opacity="1"/></g><g style="opacity:0.699999988079071;"><ellipse cx="23" cy="18" rx="1" ry="1" fill="#DBF378" fill-opacity="1"/></g><g style="opacity:0.699999988079071;"><ellipse cx="26" cy="18" rx="1" ry="1" fill="#DBF378" fill-opacity="1"/></g></g></g></g></g></svg>