<svg xmlns="http://www.w3.org/2000/svg" xmlns:xlink="http://www.w3.org/1999/xlink" fill="none" version="1.1" width="21.794921875" height="21.795166015625" viewBox="0 0 21.794921875 21.795166015625"><g><g style="opacity:0;"><g><rect x="0.06689453125" y="0.066650390625" width="21.659849166870117" height="21.659849166870117" rx="0" fill-opacity="0" stroke-opacity="1" stroke="#DBF378" fill="none" stroke-width="0.07925747334957123"/></g><g><path d="M0.02783203125,10.85752706171875L21.76693203125,10.85752706171875L21.76693203125,10.93678446171875L0.02783203125,10.93678446171875L0.02783203125,10.85752706171875Z" fill-rule="evenodd" fill="#DBF378" fill-opacity="1"/></g><g><path d="M10.9370896375,0.02801513671875L10.9370896375,21.76711513671875L10.8578322375,21.76711513671875L10.8578322375,0.02801513671875L10.9370896375,0.02801513671875Z" fill-rule="evenodd" fill="#DBF378" fill-opacity="1"/></g><g><path d="M21.79493203125,0.05603683671875L0.05585373125,21.79511513671875L-0.00018966875000000008,21.73911513671875L21.73893203125,-0.00000656328125000008L21.79493203125,0.05603683671875Z" fill-rule="evenodd" fill="#DBF378" fill-opacity="1"/></g><g><path d="M21.73893203125,21.79511513671875L-0.00018966875000000008,0.05603693671875L0.05585373125,-0.0000066632812499994865L21.79503203125,21.73911513671875L21.73893203125,21.79511513671875Z" fill-rule="evenodd" fill="#DBF378" fill-opacity="1"/></g><g><rect x="2.7841796875" y="2.78387451171875" width="16.225067138671875" height="16.225067138671875" rx="0" fill-opacity="0" stroke-opacity="1" stroke="#DBF378" fill="none" stroke-width="0.07925747334957123"/></g><g><rect x="1.87890625" y="3.69012451171875" width="18.03668212890625" height="14.413517951965332" rx="0" fill-opacity="0" stroke-opacity="1" stroke="#DBF378" fill="none" stroke-width="0.07925747334957123"/></g><g transform="matrix(0,1,-1,0,19.983154296875,-16.224853515625)"><rect x="18.10400390625" y="1.879150390625" width="18.03668212890625" height="14.413517951965332" rx="0" fill-opacity="0" stroke-opacity="1" stroke="#DBF378" fill="none" stroke-width="0.07925747334957123"/></g><g transform="matrix(0,1,-1,0,21.794189453125,-18.035888671875)"><rect x="19.9150390625" y="1.879150390625" width="18.03668212890625" height="18.03668212890625" rx="0.7529415488243103" fill-opacity="0" stroke-opacity="1" stroke="#DBF378" fill="none" stroke-width="0.07925747334957123"/></g><g><ellipse cx="10.897247314453125" cy="10.897491455078125" rx="9.018341064453125" ry="9.018341064453125" fill-opacity="0" stroke-opacity="1" stroke="#DBF378" fill="none" stroke-width="0.07925747334957123"/></g><g><ellipse cx="10.896620750427246" cy="10.896803855895996" rx="5.395155906677246" ry="5.395155906677246" fill-opacity="0" stroke-opacity="1" stroke="#DBF378" fill="none" stroke-width="0.07925747334957123"/></g></g><g><g><g><path d="M8.406196167831421,4.44351951171875L4.443336167831421,4.44351951171875L4.443336167831421,17.35109951171875L17.35091616783142,17.35109951171875L17.35091616783142,13.38826951171875L19.38901616783142,13.38826951171875L19.38901616783142,19.38919951171875L2.4052961678314206,19.38919951171875L2.4052961678314206,2.4054795117187497L8.406196167831421,2.4054795117187497L8.406196167831421,4.44351951171875Z" fill-rule="evenodd" fill="#DBF378" fill-opacity="1"/></g></g><g transform="matrix(-1,0,0,-1,36.740230083465576,21.7943115234375)"><g><path d="M17.351095041732787,15.16717529296875L19.38913504173279,15.16717529296875L19.38913504173279,17.35079529296875L21.572755041732787,17.35079529296875L21.572755041732787,19.38883529296875L17.351095041732787,19.38883529296875L17.351095041732787,15.16717529296875Z" fill-rule="evenodd" fill="#DBF378" fill-opacity="1"/></g><g><path d="M25.122706135482787,10.17659876171875L26.56382613548279,11.61771276171875L20.158543135482788,18.02299576171875L18.71742913548279,16.58187576171875L25.122706135482787,10.17659876171875Z" fill-rule="evenodd" fill="#DBF378" fill-opacity="1"/></g></g></g></g></svg>