<svg xmlns="http://www.w3.org/2000/svg" xmlns:xlink="http://www.w3.org/1999/xlink" fill="none" version="1.1" width="13.587890625" height="13.5869140625" viewBox="0 0 13.587890625 13.5869140625"><g><g><g><ellipse cx="6.793478488922119" cy="6.793478488922119" rx="6.114130616188049" ry="6.114130616188049" fill-opacity="0" stroke-opacity="1" stroke="#DBF378" fill="none" stroke-width="1.3586957454681396"/></g></g><g><g><path d="M3.652820675,7.47280503125Q3.637940875,7.47345703125,3.623046875,7.47345703125Q3.556072675,7.47345703125,3.490385875,7.46039103125Q3.424697875,7.44732503125,3.362821875,7.42169503125Q3.300945875,7.39606503125,3.245258875,7.35885603125Q3.189571875,7.32164703125,3.142213875,7.27429003125Q3.094856875,7.22693203125,3.057647875,7.17124503125Q3.020438875,7.11555803125,2.994808875,7.05368203125Q2.969178875,6.99180603125,2.956112875,6.92611803125Q2.943046875,6.86043123125,2.943046875,6.79345703125Q2.943046875,6.72648283125,2.956112875,6.66079603125Q2.969178875,6.59510803125,2.994808875,6.53323203125Q3.020438875,6.47135603125,3.057647875,6.41566903125Q3.094856875,6.35998203125,3.142213875,6.31262403125Q3.189571875,6.26526703125,3.245258875,6.22805803125Q3.300945875,6.19084903125,3.362821875,6.16521903125Q3.424697875,6.13958903125,3.490385875,6.12652303125Q3.556072675,6.11345703125,3.623046875,6.11345703125Q3.637940875,6.11345703125,3.652820675,6.11410903125L9.933856875,6.11410903125Q9.948736875,6.11345703125,9.963626875,6.11345703125Q10.030596875,6.11345703125,10.096286875,6.12652303125Q10.161976875,6.13958903125,10.223846875,6.16521903125Q10.285726875,6.19084903125,10.341416875,6.22805803125Q10.397096874999999,6.26526703125,10.444456875,6.31262403125Q10.491816875,6.35998203125,10.529026875,6.41566903125Q10.566236875000001,6.47135603125,10.591866875000001,6.53323203125Q10.617496875,6.59510803125,10.630556875,6.66079603125Q10.643626874999999,6.72648283125,10.643626874999999,6.79345703125Q10.643626874999999,6.86043123125,10.630556875,6.92611803125Q10.617496875,6.99180603125,10.591866875000001,7.05368203125Q10.566236875000001,7.11555803125,10.529026875,7.17124503125Q10.491816875,7.22693203125,10.444456875,7.27429003125Q10.397096874999999,7.32164703125,10.341416875,7.35885603125Q10.285726875,7.39606503125,10.223846875,7.42169503125Q10.161976875,7.44732503125,10.096286875,7.46039103125Q10.030596875,7.47345703125,9.963626875,7.47345703125Q9.948736875,7.47345703125,9.933856875,7.47280503125L3.652820675,7.47280503125Z" fill-rule="evenodd" fill="#DBF378" fill-opacity="1"/></g><g transform="matrix(0,1,-1,0,10.41796875,-3.171875)"><path d="M6.824695675,4.302394875Q6.809815875,4.303046875,6.794921875,4.303046875Q6.727947675,4.303046875,6.662260875,4.289980875Q6.596572875,4.276914875,6.534696875,4.251284875Q6.472820875,4.225654875,6.417133875,4.188445875Q6.361446875,4.151236875,6.314088875,4.103879875Q6.266731875,4.056521875,6.229522875,4.000834875Q6.192313875,3.945147875,6.166683875,3.883271875Q6.141053875,3.821395875,6.127987875,3.755707875Q6.114921875,3.690021075,6.114921875,3.623046875Q6.114921875,3.556072675,6.127987875,3.490385875Q6.141053875,3.424697875,6.166683875,3.362821875Q6.192313875,3.300945875,6.229522875,3.245258875Q6.266731875,3.189571875,6.314088875,3.142213875Q6.361446875,3.094856875,6.417133875,3.057647875Q6.472820875,3.020438875,6.534696875,2.994808875Q6.596572875,2.969178875,6.662260875,2.956112875Q6.727947675,2.943046875,6.794921875,2.943046875Q6.809815875,2.943046875,6.824695675,2.943698875L13.105731875,2.943698875Q13.120611875,2.943046875,13.135501875,2.943046875Q13.202471875,2.943046875,13.268161875,2.956112875Q13.333851875,2.969178875,13.395721875,2.994808875Q13.457601875,3.020438875,13.513291875,3.057647875Q13.568971874999999,3.094856875,13.616331875,3.142213875Q13.663691875,3.189571875,13.700901875,3.245258875Q13.738111875000001,3.300945875,13.763741875000001,3.362821875Q13.789371875,3.424697875,13.802431875,3.490385875Q13.815501874999999,3.556072675,13.815501874999999,3.623046875Q13.815501874999999,3.690021075,13.802431875,3.755707875Q13.789371875,3.821395875,13.763741875000001,3.883271875Q13.738111875000001,3.945147875,13.700901875,4.000834875Q13.663691875,4.056521875,13.616331875,4.103879875Q13.568971874999999,4.151236875,13.513291875,4.188445875Q13.457601875,4.225654875,13.395721875,4.251284875Q13.333851875,4.276914875,13.268161875,4.289980875Q13.202471875,4.303046875,13.135501875,4.303046875Q13.120611875,4.303046875,13.105731875,4.302394875L6.824695675,4.302394875Z" fill-rule="evenodd" fill="#DBF378" fill-opacity="1"/></g></g></g></svg>