<svg xmlns="http://www.w3.org/2000/svg" xmlns:xlink="http://www.w3.org/1999/xlink" fill="none" version="1.1" width="36" height="36" viewBox="0 0 36 36"><defs><clipPath id="master_svg0_1940_75400"><rect x="9" y="9" width="18" height="18" rx="0"/></clipPath></defs><g><g><rect x="0" y="0" width="36" height="36" rx="18" fill="#000000" fill-opacity="1"/></g><g clip-path="url(#master_svg0_1940_75400)"></g><g><g><path d="M22.14286,11.53125Q22.14286,11.6556,22.13048,11.77936Q22.11809,11.90311,22.09345,12.02507Q22.0688,12.14704,22.032130000000002,12.26603Q21.99546,12.38503,21.947119999999998,12.49992Q21.898780000000002,12.614799999999999,21.83923,12.72447Q21.77968,12.83414,21.70949,12.93754Q21.639310000000002,13.04093,21.55917,13.13706Q21.47903,13.23318,21.3897,13.321110000000001Q21.30038,13.409040000000001,21.20273,13.48793Q21.10507,13.56682,21.00004,13.635909999999999Q20.895,13.704989999999999,20.78359,13.76361Q20.67218,13.822230000000001,20.55547,13.86982Q20.43876,13.91741,20.31788,13.95351Q20.19699,13.9896,20.07309,14.013860000000001Q19.94919,14.03812,19.82347,14.05031Q19.69776,14.0625,19.57143,14.0625Q19.4451,14.0625,19.31938,14.05031Q19.19367,14.03812,19.06977,14.013860000000001Q18.94587,13.9896,18.82498,13.95351Q18.7041,13.91741,18.58739,13.86982Q18.47068,13.822230000000001,18.35927,13.76361Q18.24786,13.704989999999999,18.14282,13.635909999999999Q18.03778,13.56682,17.940131,13.48793Q17.84248,13.409040000000001,17.753154,13.321110000000001Q17.663828,13.23318,17.583687,13.13706Q17.503547,13.04093,17.433364,12.93754Q17.363181,12.83414,17.303631,12.72447Q17.244081,12.614799999999999,17.195738,12.49992Q17.147395,12.38503,17.110725,12.26603Q17.0740543,12.14704,17.0494093,12.02507Q17.0247643,11.90311,17.0123821,11.77936Q17,11.6556,17,11.53125Q17,11.4069,17.0123821,11.28314Q17.0247643,11.15939,17.0494093,11.03743Q17.0740543,10.91546,17.110725,10.79647Q17.147395,10.67747,17.195738,10.56258Q17.244081,10.4477,17.303631,10.33803Q17.363181,10.22836,17.433364,10.12496Q17.503547,10.02157,17.583687,9.925442Q17.663828,9.829316,17.753154,9.741386Q17.84248,9.653456,17.940132,9.574567Q18.03778,9.495678999999999,18.14282,9.426592Q18.24786,9.357506,18.35927,9.298887Q18.47068,9.240268,18.58739,9.19268Q18.7041,9.145092,18.82498,9.108995Q18.94587,9.0728972,19.06977,9.0486373Q19.19367,9.0243773,19.31938,9.0121887Q19.4451,9,19.57143,9Q19.69776,9,19.82347,9.0121887Q19.94919,9.0243773,20.07309,9.0486373Q20.19699,9.0728972,20.31788,9.108995Q20.43876,9.145092,20.55547,9.19268Q20.67218,9.240268,20.78359,9.298887Q20.895,9.357506,21.00004,9.426592Q21.10507,9.495678999999999,21.20273,9.574567Q21.30038,9.653456,21.3897,9.741386Q21.47903,9.829316,21.55917,9.925442Q21.639310000000002,10.02157,21.70949,10.12496Q21.77968,10.22836,21.83923,10.33803Q21.898780000000002,10.4477,21.947119999999998,10.56258Q21.99546,10.67747,22.032130000000002,10.79647Q22.0688,10.91546,22.09345,11.03743Q22.11809,11.15939,22.13048,11.28314Q22.14286,11.4069,22.14286,11.53125Z" fill="#CF83ED" fill-opacity="1"/></g><g style="opacity:0.699999988079071;"><path d="M10.08086454498291,21.134854740753173L12.44873454498291,22.591654740753174C12.71363454498291,22.754634740753175,13.06148454498291,22.638784740753174,13.175764544982911,22.349504740753176L14.40886454498291,19.228214740753174L16.22515454498291,14.630740740753174C16.32661454498291,14.373913740753174,16.61706454498291,14.247966340753173,16.87389454498291,14.349428740753174L18.26896454498291,14.900570740753174C18.525794544982908,15.002033740753173,18.65169454498291,15.292484740753174,18.55029454498291,15.549314740753173L17.40448454498291,18.449594740753174C17.300014544982908,18.714054740753173,17.436824544982912,19.012294740753173,17.70542454498291,19.105614740753175L21.24259454498291,20.334504740753175C21.40939454498291,20.392474740753173,21.53329454498291,20.534164740753173,21.568394544982908,20.707254740753175L22.69689454498291,26.26111474075317C22.75179454498291,26.531714740753173,22.57699454498291,26.795714740753176,22.306394544982908,26.850714740753176L20.836494544982912,27.149314740753173C20.56579454498291,27.204314740753176,20.301894544982908,27.02951474075317,20.246894544982908,26.758914740753173L19.402194544982912,22.601224740753175C19.36699454498291,22.428124740753173,19.24309454498291,22.286434740753172,19.076294544982908,22.228464740753175L16.746484544982913,21.419034740753176C16.49332454498291,21.331084740753173,16.21583454498291,21.45837474075317,16.11736454498291,21.707634740753175L14.40532454498291,26.041214740753176C14.29104454498291,26.330514740753173,13.94320454498291,26.446314740753174,13.678294544982911,26.283414740753173L8.77085254498291,23.264144740753174C8.53565754498291,23.119444740753174,8.46229654498291,22.811484740753173,8.606996544982911,22.576284740753174L9.39300454498291,21.298714740753173C9.53770454498291,21.063514740753174,9.84566454498291,20.990154740753173,10.08086454498291,21.134854740753173" fill-rule="evenodd" fill="#CF83ED" fill-opacity="1"/></g><g><path d="M13.899829864501953,20.499944740753172L16.287279864501954,21.259684740753173C16.291459864501952,21.261014740753176,16.29560986450195,21.262394740753173,16.299749864501955,21.263834740753175L19.076269864501953,22.228464740753175C19.243119864501953,22.286434740753172,19.366999864501953,22.428124740753173,19.402169864501953,22.601224740753175L20.246899864501955,26.758914740753173C20.301889864501952,27.02951474075317,20.565829864501953,27.204314740753176,20.83644986450195,27.149314740753173L22.30640986450195,26.850714740753176C22.577029864501952,26.795714740753176,22.751829864501953,26.531714740753173,22.696849864501953,26.26111474075317L21.568439864501954,20.707254740753175C21.533269864501953,20.534164740753173,21.409389864501954,20.392474740753173,21.242549864501953,20.334504740753175L17.705419864501952,19.105614740753175C17.436819864501953,19.012294740753173,17.300009864501952,18.714054740753173,17.404489864501954,18.449594740753174L18.550279864501952,15.549314740753173C18.651739864501952,15.292484740753174,18.525799864501952,15.002033740753173,18.268969864501955,14.900570740753174L16.873889864501955,14.349428740753174C16.617059864501954,14.247966340753173,16.326609864501954,14.373913740753174,16.225149864501955,14.630740740753174L14.409274864501953,19.227174740753174C14.409000864501953,19.227864740753173,14.408723864501953,19.228564740753175,14.408445864501953,19.229254740753174L13.899829864501953,20.499944740753172Z" fill="#CF83ED" fill-opacity="1"/></g><g><path d="M25.631042560005188,15.81427563911438L22.728942560005187,19.24232563911438C22.583942560005188,19.41362563911438,22.34264256000519,19.46730563911438,22.138642560005188,19.37361563911438L14.353782560005188,15.797445639114379C14.137152560005187,15.69792563911438,13.880392560005188,15.76519563911438,13.740382560005187,15.95814563911438L12.019722560005189,18.32943563911438C11.857542560005188,18.55293563911438,11.544882560005188,18.60265563911438,11.321382560005189,18.440475639114382L10.107327560005189,17.55952563911438C9.883826560005188,17.39734563911438,9.834113560005187,17.08469563911438,9.996291560005188,16.861195639114378L12.921002560005189,12.83058063911438C13.061012560005189,12.63762863911438,13.317772560005189,12.57036063911438,13.534402560005187,12.66987663911438L21.457142560005188,16.30939563911438C21.66114256000519,16.40308563911438,21.902442560005188,16.34939563911438,22.04754256000519,16.17810563911438L23.722942560005187,14.19896563911438C23.90134256000519,13.98820563911438,24.21684256000519,13.96198563911438,24.42764256000519,14.14040563911438L25.57254256000519,15.10959563911438C25.78324256000519,15.28801563911438,25.809442560005188,15.60350563911438,25.631042560005188,15.81427563911438" fill-rule="evenodd" fill="#CF83ED" fill-opacity="1"/></g></g></g></svg>