<svg xmlns="http://www.w3.org/2000/svg" xmlns:xlink="http://www.w3.org/1999/xlink" fill="none" version="1.1" width="36" height="36" viewBox="0 0 36 36"><defs><clipPath id="master_svg0_1940_75370"><rect x="9" y="9" width="18" height="18" rx="0"/></clipPath></defs><g><g><rect x="0" y="0" width="36" height="36" rx="18" fill="#000000" fill-opacity="1"/></g><g clip-path="url(#master_svg0_1940_75370)"></g><g><g style="opacity:0.699999988079071;"><path d="M10,12.876499545135498L10,24.938884545135497C10,25.3542845451355,10.299739,25.6922845451355,10.668407,25.6922845451355L17.93357,25.6922845451355L18.11196,25.692384545135496L21.6999,25.692384545135496C21.976100000000002,25.692384545135496,22.1999,25.468484545135496,22.1999,25.192384545135496L22.1999,12.623103545135498C22.1999,12.346960545135499,21.976100000000002,12.123102951435499,21.6999,12.123102951435499L19.06827,12.123102951435499L17.71759,12.123100797635498L17.69671,12.123100764335499L17.54047,12.123100515235498L13.29692,12.123084545135498L10.668407,12.123084545135498C10.299739,12.123084545135498,10,12.461127545135499,10,12.876499545135498Z" fill="#65BAE8" fill-opacity="1"/></g><g transform="matrix(-1,-5.2146120310681e-8,5.2146120310681e-8,-1,41.33333256117096,54.000001077686505)"><path d="M25.085746984558106,29.48075Q25.105476984558106,29.50869,25.121226984558106,29.53905Q25.136976984558103,29.56942,25.148436984558106,29.60165Q25.159906984558106,29.63387,25.166876984558105,29.66736Q25.173846984558104,29.70085,25.176186984558107,29.73498Q25.178526984558104,29.7691,25.176206984558107,29.80323Q25.173876984558106,29.83736,25.166926984558106,29.87085Q25.159976984558106,29.90434,25.148526984558107,29.93658Q25.137076984558107,29.96881,25.121346984558105,29.99919Q25.105616984558104,30.02956,25.085886984558105,30.05751Q25.066166984558105,30.08546,25.042826984558104,30.11046Q25.019476984558104,30.135460000000002,24.992946984558106,30.157049999999998Q24.966416984558105,30.17864,24.937186984558107,30.19642Q24.907966984558104,30.21419,24.876596984558105,30.22782Q24.845216984558107,30.24145,24.812286984558106,30.25068Q24.779346984558106,30.25991,24.745456984558103,30.26457Q24.711566984558104,30.26923,24.677366984558105,30.26923L21.989306984558105,30.26923Q21.955096984558104,30.26923,21.921206984558104,30.26457Q21.887326984558104,30.25991,21.854386984558104,30.25068Q21.821446984558104,30.24145,21.790076984558105,30.22782Q21.758696984558107,30.21419,21.729476984558104,30.19642Q21.700246984558106,30.17864,21.673716984558105,30.157049999999998Q21.647185984558106,30.135460000000002,21.623841984558105,30.11046Q21.600496984558106,30.08546,21.580775984558105,30.05751Q21.561053984558107,30.02956,21.545321984558104,29.99919Q21.529589984558104,29.96881,21.518140984558105,29.93658Q21.506692984558107,29.90434,21.499740984558105,29.87085Q21.492787984558106,29.83736,21.490461984558106,29.80323Q21.488135984558106,29.7691,21.490479984558107,29.73498Q21.492822984558106,29.70085,21.499791984558104,29.66736Q21.506760984558106,29.63387,21.518225984558107,29.60165Q21.529690984558105,29.56942,21.545437984558106,29.53905Q21.561185984558104,29.50869,21.580921984558106,29.48075L22.924946984558105,27.578115Q22.942206984558105,27.553691,22.962246984558107,27.531497Q22.982286984558105,27.509303,23.004826984558104,27.489656Q23.027376984558106,27.470009,23.052096984558105,27.453189Q23.076826984558107,27.436369,23.103376984558107,27.422616Q23.129936984558107,27.408863,23.157936984558106,27.398373Q23.185936984558104,27.387883,23.214996984558105,27.380805Q23.244046984558103,27.373727,23.273736984558106,27.370163Q23.303426984558104,27.366599,23.333336984558105,27.366599Q23.363236984558107,27.366599,23.392926984558105,27.370163Q23.422616984558104,27.373727,23.451676984558105,27.380805Q23.480726984558107,27.387883,23.508726984558105,27.398373Q23.536736984558104,27.408863,23.563286984558104,27.422616Q23.589846984558104,27.436369,23.614566984558106,27.453189Q23.639296984558104,27.470009,23.661836984558107,27.489656Q23.684376984558106,27.509303,23.704426984558104,27.531497Q23.724466984558106,27.553691,23.741716984558106,27.578115L25.085746984558106,29.48075Z" fill="#65BAE8" fill-opacity="1"/></g><g><path d="M18.11196,25.6923L25.3316,25.6923C25.7003,25.6923,26,25.3533,26,24.936700000000002L26,12.839929999999999C26,12.42337,25.7003,12.08436,25.3316,12.08436L17.54047,12.08436L14.40105,10.0453362C14.31176,9.9848879,14.196449999999999,9.9848879,14.10716,10.0453362C14.01693,10.103602,13.96339,10.20723,13.96659,10.317409L13.96659,22.3861C13.96659,22.7643,14.148520000000001,23.1174,14.44178,23.3076L18.11196,25.6923Z" fill="#65BAE8" fill-opacity="1"/></g></g></g></svg>