<svg xmlns="http://www.w3.org/2000/svg" xmlns:xlink="http://www.w3.org/1999/xlink" fill="none" version="1.1" width="21.794921875" height="21.795166015625" viewBox="0 0 21.794921875 21.795166015625"><g><g style="opacity:0;"><g><rect x="0.06689453125" y="0.067138671875" width="21.659849166870117" height="21.659849166870117" rx="0" fill-opacity="0" stroke-opacity="1" stroke="#FFFFFF" fill="none" stroke-width="0.07925747334957123"/></g><g><path d="M0.02783203125,10.85801534296875L21.76693203125,10.85801534296875L21.76693203125,10.93727274296875L0.02783203125,10.93727274296875L0.02783203125,10.85801534296875Z" fill-rule="evenodd" fill="#FFFFFF" fill-opacity="1"/></g><g><path d="M10.9370896375,0.02801513671875L10.9370896375,21.76711513671875L10.8578322375,21.76711513671875L10.8578322375,0.02801513671875L10.9370896375,0.02801513671875Z" fill-rule="evenodd" fill="#FFFFFF" fill-opacity="1"/></g><g><path d="M21.79493203125,0.05603683671875L0.05585373125,21.79511513671875L-0.00018966875000000008,21.73911513671875L21.73893203125,-0.00000656328125000008L21.79493203125,0.05603683671875Z" fill-rule="evenodd" fill="#FFFFFF" fill-opacity="1"/></g><g><path d="M21.73893203125,21.79511513671875L-0.00018966875000000008,0.05603693671875L0.05585373125,-0.0000066632812499994865L21.79503203125,21.73911513671875L21.73893203125,21.79511513671875Z" fill-rule="evenodd" fill="#FFFFFF" fill-opacity="1"/></g><g><rect x="2.7841796875" y="2.78436279296875" width="16.225067138671875" height="16.225067138671875" rx="0" fill-opacity="0" stroke-opacity="1" stroke="#FFFFFF" fill="none" stroke-width="0.07925747334957123"/></g><g><rect x="1.87890625" y="3.69061279296875" width="18.03668212890625" height="14.413517951965332" rx="0" fill-opacity="0" stroke-opacity="1" stroke="#FFFFFF" fill="none" stroke-width="0.07925747334957123"/></g><g transform="matrix(0,1,-1,0,19.98358154296875,-16.22442626953125)"><rect x="18.10400390625" y="1.87957763671875" width="18.03668212890625" height="14.413517951965332" rx="0" fill-opacity="0" stroke-opacity="1" stroke="#FFFFFF" fill="none" stroke-width="0.07925747334957123"/></g><g transform="matrix(0,1,-1,0,21.79461669921875,-18.03546142578125)"><rect x="19.9150390625" y="1.87957763671875" width="18.03668212890625" height="18.03668212890625" rx="0.7529415488243103" fill-opacity="0" stroke-opacity="1" stroke="#FFFFFF" fill="none" stroke-width="0.07925747334957123"/></g><g><ellipse cx="10.897247314453125" cy="10.897918701171875" rx="9.018341064453125" ry="9.018341064453125" fill-opacity="0" stroke-opacity="1" stroke="#FFFFFF" fill="none" stroke-width="0.07925747334957123"/></g><g><ellipse cx="10.896620750427246" cy="10.896803855895996" rx="5.395155906677246" ry="5.395155906677246" fill-opacity="0" stroke-opacity="1" stroke="#FFFFFF" fill="none" stroke-width="0.07925747334957123"/></g></g><g><g><path d="M17.205416167831423,6.3599666953125L17.205416167831423,3.4249726953125L1.3862761678314208,3.4249726953125L1.3862761678314208,18.370612695312502L17.205416167831423,18.370612695312502L17.205416167831423,15.4355726953125L20.40821616783142,16.8476126953125L20.40821616783142,4.9479006953125L17.205416167831423,6.3599666953125ZM16.332116167831423,8.9723226953125L15.167316167831421,9.485842695312499L15.167316167831421,5.4630126953125L3.424316167831421,5.4630126953125L3.424316167831421,16.3326126953125L15.167316167831421,16.3326126953125L15.167316167831421,12.309702695312499L16.332116167831423,12.8232226953125L17.205416167831423,13.2082426953125L18.37011616783142,13.7217626953125L18.37011616783142,8.073772695312499L17.205416167831423,8.5872926953125L16.332116167831423,8.9723226953125Z" fill-rule="evenodd" fill="#DBF378" fill-opacity="1"/></g><g transform="matrix(0,1,-1,0,19.75701880455017,-4.754699468612671)"><path d="M15.65259913658142,7.50115966796875L18.59425913658142,11.57724966796875L12.71093613658142,11.57724966796875L15.65259913658142,7.50115966796875Z" fill="#DBF378" fill-opacity="1"/></g></g></g></svg>