<svg xmlns="http://www.w3.org/2000/svg" xmlns:xlink="http://www.w3.org/1999/xlink" fill="none" version="1.1" width="36" height="36" viewBox="0 0 36 36"><defs><clipPath id="master_svg0_1940_75567"><rect x="9" y="9" width="18" height="18" rx="0"/></clipPath></defs><g><g><rect x="0" y="0" width="36" height="36" rx="18" fill="#000000" fill-opacity="1"/></g><g clip-path="url(#master_svg0_1940_75567)"></g><g transform="matrix(-1,-5.400848479553133e-8,5.400848479553133e-8,1,37.99999913586424,0.0000010261612111150953)"><path d="M24.424,16.678399L28.52188,23.235C28.73002,23.56802,28.490589999999997,24,28.09788,24L19.902124,24C19.509406,24,19.269985,23.56802,19.478125,23.235L23.576,16.678399C23.77183,16.365065,24.22817,16.365065,24.424,16.678399" fill="#74D172" fill-opacity="1"/></g><g transform="matrix(-1,-5.400848479553133e-8,5.400848479553133e-8,1,53.9999992978897,0.000001458229089479346)"><path d="M33.93046,13.728476L39.5542,23.2456C39.7512,23.5789,39.5109,24,39.1238,24L27.876225,24C27.489074,24,27.248806,23.5789,27.445761,23.2456L33.06954,13.728476C33.26307,13.400962,33.73693,13.400962,33.93046,13.728476" fill="#74D172" fill-opacity="1"/></g><g style="opacity:0.699999988079071;"><ellipse cx="14" cy="11" rx="2" ry="2" fill="#74D172" fill-opacity="1"/></g></g></svg>