<svg xmlns="http://www.w3.org/2000/svg" xmlns:xlink="http://www.w3.org/1999/xlink" fill="none" version="1.1" width="34" height="34" viewBox="0 0 34 34"><g style="opacity:0.30000001192092896;mix-blend-mode:passthrough"><g style="mix-blend-mode:passthrough"><path d="M33,18L1,18Q0.9015086,18,0.80491,17.980785Q0.708311,17.961570000000002,0.617317,17.923879Q0.526322,17.886188,0.44443,17.83147Q0.362537,17.776751,0.29289299999999996,17.707107Q0.22324900000000003,17.637463,0.16852999999999996,17.55557Q0.11381200000000002,17.473678,0.076121,17.382683Q0.038429999999999964,17.291689,0.019214999999999982,17.19509Q0,17.0984914,0,17Q0,16.9015086,0.019214999999999982,16.80491Q0.038429999999999964,16.708311,0.076121,16.617317Q0.11381200000000002,16.526322,0.16852999999999996,16.44443Q0.22324900000000003,16.362537,0.29289299999999996,16.292893Q0.362537,16.223249,0.44443,16.16853Q0.526322,16.113812,0.617317,16.076121Q0.708311,16.038429999999998,0.80491,16.019215Q0.9015086,16,1,16L33,16Q33.0985,16,33.1951,16.019215Q33.2917,16.038429999999998,33.3827,16.076121Q33.4737,16.113812,33.5556,16.16853Q33.6375,16.223249,33.7071,16.292893Q33.7767,16.362537,33.8315,16.44443Q33.8862,16.526322,33.9239,16.617317Q33.9616,16.708311,33.9808,16.80491Q34,16.9015086,34,17Q34,17.0984914,33.9808,17.19509Q33.9616,17.291689,33.9239,17.382683Q33.8862,17.473678,33.8315,17.55557Q33.7767,17.637463,33.7071,17.707107Q33.6375,17.776751,33.5556,17.83147Q33.4737,17.886188,33.3827,17.923879Q33.2917,17.961570000000002,33.1951,17.980785Q33.0985,18,33,18ZM34,17Q34,17.0984914,33.9808,17.19509Q33.9616,17.291689,33.9239,17.382683Q33.8862,17.473678,33.8315,17.55557Q33.7767,17.637463,33.7071,17.707107Q33.6375,17.776751,33.5556,17.83147Q33.4737,17.886188,33.3827,17.923879Q33.2917,17.961570000000002,33.1951,17.980785Q33.0985,18,33,18Q32.9015,18,32.8049,17.980785Q32.7083,17.961570000000002,32.6173,17.923879Q32.5263,17.886188,32.4444,17.83147Q32.3625,17.776751,32.2929,17.707107Q32.2232,17.637463,32.1685,17.55557Q32.1138,17.473678,32.0761,17.382683Q32.038399999999996,17.291689,32.0192,17.19509Q32,17.0984914,32,17Q32,16.9015086,32.0192,16.80491Q32.038399999999996,16.708311,32.0761,16.617317Q32.1138,16.526322,32.1685,16.44443Q32.2232,16.362537,32.2929,16.292893Q32.3625,16.223249,32.4444,16.16853Q32.5263,16.113812,32.6173,16.076121Q32.7083,16.038429999999998,32.8049,16.019215Q32.9015,16,33,16Q33.0985,16,33.1951,16.019215Q33.2917,16.038429999999998,33.3827,16.076121Q33.4737,16.113812,33.5556,16.16853Q33.6375,16.223249,33.7071,16.292893Q33.7767,16.362537,33.8315,16.44443Q33.8862,16.526322,33.9239,16.617317Q33.9616,16.708311,33.9808,16.80491Q34,16.9015086,34,17ZM2,17Q2,17.0984914,1.980785,17.19509Q1.96157,17.291689,1.923879,17.382683Q1.886188,17.473678,1.83147,17.55557Q1.776751,17.637463,1.7071070000000002,17.707107Q1.637463,17.776751,1.55557,17.83147Q1.473678,17.886188,1.382683,17.923879Q1.2916889999999999,17.961570000000002,1.19509,17.980785Q1.0984914,18,1,18Q0.9015086,18,0.80491,17.980785Q0.708311,17.961570000000002,0.617317,17.923879Q0.526322,17.886188,0.44443,17.83147Q0.362537,17.776751,0.29289299999999996,17.707107Q0.22324900000000003,17.637463,0.16852999999999996,17.55557Q0.11381200000000002,17.473678,0.076121,17.382683Q0.038429999999999964,17.291689,0.019214999999999982,17.19509Q0,17.0984914,0,17Q0,16.9015086,0.019214999999999982,16.80491Q0.038429999999999964,16.708311,0.076121,16.617317Q0.11381200000000002,16.526322,0.16852999999999996,16.44443Q0.22324900000000003,16.362537,0.29289299999999996,16.292893Q0.362537,16.223249,0.44443,16.16853Q0.526322,16.113812,0.617317,16.076121Q0.708311,16.038429999999998,0.80491,16.019215Q0.9015086,16,1,16Q1.0984914,16,1.19509,16.019215Q1.2916889999999999,16.038429999999998,1.382683,16.076121Q1.473678,16.113812,1.55557,16.16853Q1.637463,16.223249,1.7071070000000002,16.292893Q1.776751,16.362537,1.83147,16.44443Q1.886188,16.526322,1.923879,16.617317Q1.96157,16.708311,1.980785,16.80491Q2,16.9015086,2,17Z" fill="#FFFFFF" fill-opacity="1"/></g><g style="mix-blend-mode:passthrough" transform="matrix(0,1,-1,0,18,-16)"><path d="M49,2L17,2Q16.9015086,2,16.80491,1.980785Q16.708311,1.96157,16.617317,1.923879Q16.526322,1.886188,16.44443,1.83147Q16.362537,1.776751,16.292893,1.7071070000000002Q16.223249,1.637463,16.16853,1.55557Q16.113812,1.473678,16.076121,1.382683Q16.038429999999998,1.2916889999999999,16.019215,1.19509Q16,1.0984914,16,1Q16,0.9015086,16.019215,0.80491Q16.038429999999998,0.708311,16.076121,0.617317Q16.113812,0.526322,16.16853,0.44443Q16.223249,0.362537,16.292893,0.29289299999999996Q16.362537,0.22324900000000003,16.44443,0.16852999999999996Q16.526322,0.11381200000000002,16.617317,0.076121Q16.708311,0.038429999999999964,16.80491,0.019214999999999982Q16.9015086,0,17,0L49,0Q49.0985,0,49.1951,0.019214999999999982Q49.2917,0.038429999999999964,49.3827,0.076121Q49.4737,0.11381200000000002,49.5556,0.16852999999999996Q49.6375,0.22324900000000003,49.7071,0.29289299999999996Q49.7767,0.362537,49.8315,0.44443Q49.8862,0.526322,49.9239,0.617317Q49.9616,0.708311,49.9808,0.80491Q50,0.9015086,50,1Q50,1.0984914,49.9808,1.19509Q49.9616,1.2916889999999999,49.9239,1.382683Q49.8862,1.473678,49.8315,1.55557Q49.7767,1.637463,49.7071,1.7071070000000002Q49.6375,1.776751,49.5556,1.83147Q49.4737,1.886188,49.3827,1.923879Q49.2917,1.96157,49.1951,1.980785Q49.0985,2,49,2ZM50,1Q50,1.0984914,49.9808,1.19509Q49.9616,1.2916889999999999,49.9239,1.382683Q49.8862,1.473678,49.8315,1.55557Q49.7767,1.637463,49.7071,1.7071070000000002Q49.6375,1.776751,49.5556,1.83147Q49.4737,1.886188,49.3827,1.923879Q49.2917,1.96157,49.1951,1.980785Q49.0985,2,49,2Q48.9015,2,48.8049,1.980785Q48.7083,1.96157,48.6173,1.923879Q48.5263,1.886188,48.4444,1.83147Q48.3625,1.776751,48.2929,1.7071070000000002Q48.2232,1.637463,48.1685,1.55557Q48.1138,1.473678,48.0761,1.382683Q48.038399999999996,1.2916889999999999,48.0192,1.19509Q48,1.0984914,48,1Q48,0.9015086,48.0192,0.80491Q48.038399999999996,0.708311,48.0761,0.617317Q48.1138,0.526322,48.1685,0.44443Q48.2232,0.362537,48.2929,0.29289299999999996Q48.3625,0.22324900000000003,48.4444,0.16852999999999996Q48.5263,0.11381200000000002,48.6173,0.076121Q48.7083,0.038429999999999964,48.8049,0.019214999999999982Q48.9015,0,49,0Q49.0985,0,49.1951,0.019214999999999982Q49.2917,0.038429999999999964,49.3827,0.076121Q49.4737,0.11381200000000002,49.5556,0.16852999999999996Q49.6375,0.22324900000000003,49.7071,0.29289299999999996Q49.7767,0.362537,49.8315,0.44443Q49.8862,0.526322,49.9239,0.617317Q49.9616,0.708311,49.9808,0.80491Q50,0.9015086,50,1ZM18,1Q18,1.0984914,17.980785,1.19509Q17.961570000000002,1.2916889999999999,17.923879,1.382683Q17.886188,1.473678,17.83147,1.55557Q17.776751,1.637463,17.707107,1.7071070000000002Q17.637463,1.776751,17.55557,1.83147Q17.473678,1.886188,17.382683,1.923879Q17.291689,1.96157,17.19509,1.980785Q17.0984914,2,17,2Q16.9015086,2,16.80491,1.980785Q16.708311,1.96157,16.617317,1.923879Q16.526322,1.886188,16.44443,1.83147Q16.362537,1.776751,16.292893,1.7071070000000002Q16.223249,1.637463,16.16853,1.55557Q16.113812,1.473678,16.076121,1.382683Q16.038429999999998,1.2916889999999999,16.019215,1.19509Q16,1.0984914,16,1Q16,0.9015086,16.019215,0.80491Q16.038429999999998,0.708311,16.076121,0.617317Q16.113812,0.526322,16.16853,0.44443Q16.223249,0.362537,16.292893,0.29289299999999996Q16.362537,0.22324900000000003,16.44443,0.16852999999999996Q16.526322,0.11381200000000002,16.617317,0.076121Q16.708311,0.038429999999999964,16.80491,0.019214999999999982Q16.9015086,0,17,0Q17.0984914,0,17.19509,0.019214999999999982Q17.291689,0.038429999999999964,17.382683,0.076121Q17.473678,0.11381200000000002,17.55557,0.16852999999999996Q17.637463,0.22324900000000003,17.707107,0.29289299999999996Q17.776751,0.362537,17.83147,0.44443Q17.886188,0.526322,17.923879,0.617317Q17.961570000000002,0.708311,17.980785,0.80491Q18,0.9015086,18,1Z" fill="#FFFFFF" fill-opacity="1"/></g></g></svg>